<svg enable-background="new -0.88 -0.198 98 50" height="225.876976" viewBox="-.88 -.198 98 50" width="442.718872" xmlns="http://www.w3.org/2000/svg"><g fill="#41535d"><path d="m0 49.476h2.094l.736-1.044h3.8l.394 1.044h2.086l-2.296-5.903h-2.44zm5.342-4.533.815 2.217h-2.396z"/><path d="m10.24 49.476h1.824l.764-4.24h.018l1.69 4.24h1.403l3.218-4.24h.017l-.763 4.24h1.824l1.062-5.903h-2.876l-2.804 3.799-1.434-3.799h-2.877z"/><path d="m21.925 49.476h6.794l.257-1.419h-4.923l.173-.945h4.557l.22-1.223h-4.557l.169-.946h4.811l.248-1.37h-6.685z"/><path d="m32.948 45.04h2.93c.59 0 .842.099.749.62l-.035.196c-.077.424-.298.619-.804.619h-3.099zm-2.674 4.436h1.874l.278-1.533h2.943c.584 0 .732.204.62.824l-.128.709h1.874l.18-1.003c.175-.97-.247-1.207-.786-1.305l.003-.016c.897-.196 1.167-.661 1.309-1.452l.067-.375c.192-1.059-.07-1.752-1.516-1.752h-5.656z"/><path d="m44.205 47.951c-.229 1.28.399 1.59 2.103 1.59h2.272c2.49 0 3.093-.261 3.378-1.851.313-1.72-.334-1.892-3.247-1.883-2.01.009-2.233-.009-2.141-.522.057-.318.367-.457.789-.457h2.077c.861 0 .88.18.802.612h1.874l.034-.188c.186-1.035.111-1.744-2.05-1.744h-2.616c-2.363 0-2.612.823-2.807 1.891-.261 1.452 0 1.777 2.819 1.777 2.415 0 2.627.033 2.535.546-.079.457-.495.498-.892.498h-2.296c-.54 0-.793-.049-.688-.676h-1.871z"/><path d="m53.216 49.476h1.873l.269-1.484h3.722c1.325 0 1.905-1.011 2.064-1.892l.09-.506c.21-1.157-.066-2.021-1.846-2.021h-5.108zm2.674-4.436h2.752c.565 0 .727.229.652.629l-.039.228c-.062.35-.283.628-.722.628h-2.911z"/><path d="m62.267 47.405c-.313 1.728.619 2.136 2.309 2.136h3.005c1.687 0 2.765-.408 3.076-2.136l.317-1.761c.313-1.729-.619-2.136-2.307-2.136h-3.006c-1.688 0-2.765.407-3.076 2.136zm2.14-1.198c.132-.734.398-1.183 1.387-1.183h2.195c.986 0 1.092.449.96 1.183l-.116.635c-.152.857-.398 1.183-1.284 1.183h-2.396c-.888 0-1.015-.326-.86-1.183z"/><path d="m74.51 45.04h2.931c.591 0 .841.099.749.62l-.035.196c-.076.424-.297.619-.804.619h-3.099zm-2.672 4.436h1.874l.275-1.533h2.947c.582 0 .73.204.619.824l-.129.709h1.873l.182-1.003c.174-.97-.246-1.207-.785-1.305l.003-.016c.895-.196 1.166-.661 1.307-1.452l.068-.375c.192-1.059-.072-1.752-1.517-1.752h-5.653z"/><path d="m81.113 45.04h2.632l-.8 4.436h1.876l.797-4.436h2.633l.266-1.467h-7.141z"/><path d="m88.783 47.951c-.231 1.28.397 1.59 2.101 1.59h2.272c2.49 0 3.093-.261 3.38-1.851.31-1.72-.333-1.892-3.248-1.883-2.011.009-2.234-.009-2.142-.522.059-.318.368-.457.791-.457h2.074c.863 0 .883.18.804.612h1.874l.034-.188c.186-1.035.111-1.744-2.05-1.744h-2.616c-2.364 0-2.614.823-2.806 1.891-.264 1.452 0 1.777 2.821 1.777 2.411 0 2.627.033 2.534.546-.081.457-.495.498-.893.498h-2.297c-.539 0-.793-.049-.688-.676h-1.875z"/></g><path d="m70.522 16.797c-.729 1.961-1.297 3.56-2.044 6.562-.221.773-.761 1.198-1.488 1.138-4.105-.397-8.282-.7-13.667-.882-1.179-.061-1.34-.668.082-1.4 3.025-1.611 9.338-4.338 15.967-6.535 1.158-.372 1.401.354 1.15 1.117m5.202-6.542c-13.361 3.869-22.746 7.622-34.646 14.974-2.421 1.483-2.198 2.018-.722 1.97 11.963-.455 17.344-.42 29.302.963.632.073 1.247-.256 1.368-.888 1.42-7.068 2.974-10.657 5.677-16.046.333-.611-.031-1.249-.979-.973zm7.847-3.902c-4.521 6.565-8.896 15.382-9.653 24.402-.069.935-.847 1.215-1.563 1.108-12.174-2.113-30.316-2.147-43.184-.18-1.498.149-1.526-.705.544-2.357 13.952-11.462 32.957-19.639 52.725-24.194 1.128-.312 1.711.389 1.131 1.221zm7.694-6.344c-26.416 4.348-54.72 16.065-71.89 34.385-1.235 1.258-1.774 2.02-1.842 2.448-.038.241.073.395.279.452.185.053.447.03.734-.033 16.685-4.451 39.577-5.002 57.347-1.382.81.13 1.368-.326 1.332-1.066-.633-11.467 5.527-23.13 14.57-33.528.519-.601.298-1.376-.53-1.276z" fill="#004275"/></svg>