<?xml version="1.0" encoding="UTF-8" standalone="no"?>
<svg
   xmlns:dc="http://purl.org/dc/elements/1.1/"
   xmlns:cc="http://creativecommons.org/ns#"
   xmlns:rdf="http://www.w3.org/1999/02/22-rdf-syntax-ns#"
   xmlns:svg="http://www.w3.org/2000/svg"
   xmlns="http://www.w3.org/2000/svg"
   xmlns:sodipodi="http://sodipodi.sourceforge.net/DTD/sodipodi-0.dtd"
   xmlns:inkscape="http://www.inkscape.org/namespaces/inkscape"
   height="79.5"
   viewBox="0 0 283 79.5"
   width="283"
   version="1.1"
   id="svg250"
   sodipodi:docname="FrieslandCampina Logo.svg"
   inkscape:version="1.0.2 (e86c870879, 2021-01-15, custom)">
  <metadata
     id="metadata256">
    <rdf:RDF>
      <cc:Work
         rdf:about="">
        <dc:format>image/svg+xml</dc:format>
        <dc:type
           rdf:resource="http://purl.org/dc/dcmitype/StillImage" />
        <dc:title></dc:title>
      </cc:Work>
    </rdf:RDF>
  </metadata>
  <defs
     id="defs254" />
  <sodipodi:namedview
     pagecolor="#ffffff"
     bordercolor="#666666"
     borderopacity="1"
     objecttolerance="10"
     gridtolerance="10"
     guidetolerance="10"
     inkscape:pageopacity="0"
     inkscape:pageshadow="2"
     inkscape:window-width="1366"
     inkscape:window-height="705"
     id="namedview252"
     showgrid="false"
     inkscape:zoom="2.9158785"
     inkscape:cx="134.77629"
     inkscape:cy="56.33124"
     inkscape:window-x="-8"
     inkscape:window-y="-8"
     inkscape:window-maximized="1"
     inkscape:current-layer="svg250" />
  <g
     id="g392">
    <path
       d="m 91.118788,33.429853 c 0,0 0.583491,-2.702376 0.0458,-5.348993 -0.05078,-0.357463 -0.07567,-0.496863 -0.121477,-0.763715 -0.07169,-0.417206 -0.121478,-0.605396 -0.121478,-0.605396 -0.11152,-0.493876 -0.233993,-0.996713 -0.388329,-1.502538 -0.533705,-1.779347 -1.334262,-3.523843 -2.19954,-4.887976 -3.781734,0.511799 -7.708843,0.994721 -11.625995,1.502537 -8.586071,1.16499 -16.345696,1.330279 -18.976381,-1.330278 C 55.251059,17.982295 56.992569,9.6441581 58.746027,3.5314495 57.578051,2.6233554 56.104389,1.7033126 54.386777,1.1706038 c 0,0 -0.165289,-0.053769 -0.524743,-0.1553319 C 53.50258,0.91271301 53.064464,0.79820552 53.066456,0.79621409 52.913115,0.75538968 52.756788,0.71954386 52.595481,0.68369803 50.353126,0.19977942 48.216317,0.19480083 46.406102,0.56421195 c -0.110524,0.0219058 -0.224036,0.0408244 -0.331573,0.0657174 v 9.9571e-4 c -9.96e-4,0 -0.003,0 -0.004,9.9572e-4 C 45.471124,2.0976166 44.185653,5.4890298 42.37743,8.6155822 40.567216,11.740143 38.23425,14.599843 35.539839,15.002113 30.907762,15.694136 24.794058,8.5269633 18.691307,1.2851113 h -9.96e-4 c -0.004,-0.00398 -0.007,-0.00896 -0.01095,-0.011949 -1.504529,0.3116595 -3.529818,1.2695396 -4.813297,2.1587151 -0.0926,0.057752 -0.183212,0.1145075 -0.268844,0.1712634 0,0 -0.328587,0.204122 -0.787612,0.5536188 -0.116499,0.088619 -0.270836,0.215075 -0.270836,0.215075 C 11.726264,4.9652825 11.027271,5.7967064 10.044498,7.027413 9.1632877,8.1286764 8.5419601,9.3016314 8.4702685,9.634201 h -0.00299 c 4.5076125,5.194657 6.3735865,6.887377 9.6943035,13.566648 2.577912,5.186692 -0.247933,6.689229 -3.765803,8.106135 -2.974207,1.209797 -13.75384285,2.942345 -13.75384285,2.942345 l -0.005974,9.95e-4 c -0.5576017,1.651895 -0.70198071,3.375482 -0.45603853,5.499347 0,0 0.0537687,0.49985 0.10056745,0.76272 0.0826445,0.482923 0.10853319,0.558597 0.10853319,0.558597 0.53868306,3.336649 1.90679864,5.513287 2.48730184,6.291938 4.3194217,-0.496863 7.6023009,-0.691028 10.0428039,-0.691028 9.236274,-0.03983 9.480225,2.628694 8.995311,9.892451 -0.403266,6.027077 -4.472762,16.569732 -5.53818,18.79516 0,0 0.778651,0.74878 1.763415,1.361146 1.280493,0.796574 2.652591,1.343223 2.79697,1.395 0.006,0.002 0.01095,0.004 0.01095,0.004 0.351488,0.124464 0.351488,0.123469 0.554615,0.190182 0.204122,0.06771 0.606392,0.18819 0.606392,0.18819 1.309368,0.455043 3.84546,0.966842 6.729057,0.835407 0.216071,-0.547644 9.367709,-24.101337 15.515267,-25.072162 4.739615,-0.748779 12.125846,9.118779 13.510889,11.057441 1.560289,-0.07767 3.781734,-0.51379 5.519261,-1.247634 0,0 0.272826,-0.122473 0.652195,-0.305685 0.379368,-0.184208 0.6741,-0.343522 0.6741,-0.343522 0,0 2.925418,-1.786317 4.668919,-4.648009 l 0.103554,-0.166285 C 69.698918,58.875409 61.694346,48.26405 62.484946,43.603097 63.357194,38.470174 84.287172,34.546052 91.118788,33.429853"
       fill="#ffffff"
       id="path134"
       style="fill-rule:evenodd" />
    <path
       d="M 53.941791,2.3511263 C 51.098022,10.20634 49.619382,15.041543 48.816834,18.689852 c -0.505825,2.370803 -0.711938,4.114304 -0.645225,5.610867 0.122473,4.293533 2.701381,5.527226 4.912869,6.000192 2.210492,0.472966 4.718704,0.461017 7.714818,0.328587 2.974207,-0.143383 6.327783,-0.480932 9.731145,-0.893159 4.833212,-0.592451 14.356252,-2.111916 18.987333,-2.83182 C 82.613471,27.829541 74.697518,28.783438 68.039156,28.87604 65.15755,28.91487 62.510934,28.7934 60.163032,28.394113 57.823097,27.97392 55.730099,27.389434 53.936812,25.78832 52.702123,24.654198 51.926459,23.224348 51.47042,21.793502 51.01239,20.347721 50.83814,18.866094 50.81723,17.358578 50.7764,13.542989 51.700431,9.5212866 52.725024,6.022336 c 0.350493,-1.1679764 0.76969,-2.4146145 1.225728,-3.6732012 0.01,-0.026884 0.161306,-0.4420985 0.172259,-0.4699786 z"
       fill="#a2d39b"
       id="path136"
       style="fill-rule:evenodd" />
    <path
       d="m 50.817031,17.358378 c 0.02091,1.507516 0.19516,2.989144 0.65319,4.435921 0.456039,1.42985 1.231702,2.8597 2.466392,3.993822 1.794283,1.601114 3.886285,2.186595 6.22622,2.605792 2.347902,0.399283 4.994518,0.520761 7.876124,0.481928 6.658362,-0.09161 14.57531,-1.046499 21.478618,-1.971521 0.472966,-0.05974 0.94394,-0.127452 1.403962,-0.192173 -0.110525,-0.493876 -0.233994,-0.996713 -0.38833,-1.503533 -0.532709,-1.779347 -1.334261,-3.523844 -2.199539,-4.886981 -3.781735,0.511799 -7.707848,0.994722 -11.625996,1.501542 -8.58607,1.164989 -16.345695,1.330278 -18.97638,-1.329283 -2.480332,-2.512194 -0.738823,-10.8503313 1.014636,-16.9630399 -1.167977,-0.9070984 -2.640643,-1.828137 -4.359251,-2.35985 -0.0458,0.1314347 -0.102559,0.2688437 -0.15334,0.4112312 -0.480932,1.2874625 -1.015632,2.7999571 -1.507516,4.4399035 -1.025589,3.4989507 -1.949615,7.5206532 -1.90879,11.3362412"
       fill="#39b54a"
       id="path138"
       style="fill-rule:evenodd" />
    <path
       d="m 22.109007,78.498309 c 2.451456,-6.143576 6.573725,-15.88667 10.9738,-22.308051 1.579208,-2.288158 3.149454,-4.246734 4.893951,-5.713425 0.969829,-0.798566 2.010353,-1.497559 3.362537,-1.874936 0.781638,-0.227024 1.570246,-0.330578 2.327987,-0.330578 2.208501,0.01095 3.825546,0.677087 5.633769,1.661852 1.805235,0.994721 3.486006,2.27621 5.046295,3.645321 3.117591,2.744197 9.035139,10.492869 9.035139,10.492869 h 0.006 c 0,0 -5.894646,-8.097173 -9.447365,-11.932676 -1.7903,-1.918748 -3.651296,-3.958972 -5.543159,-5.40575 -0.955888,-0.717912 -1.909786,-1.354175 -2.933383,-1.856017 -1.025589,-0.473961 -2.143779,-0.863287 -3.473062,-0.871252 -0.435128,0 -0.908094,0.03983 -1.404957,0.173255 -1.737527,0.502837 -2.554015,1.436819 -3.440203,2.388725 -1.471671,1.714626 -2.826842,4.216863 -4.277602,6.966039 -4.010749,7.652087 -8.368008,18.747365 -10.758726,24.962633 z"
       fill="#f49ac1"
       id="path140"
       style="fill-rule:evenodd" />
    <path
       d="m 57.863921,65.318596 c 1.560289,-0.07766 3.781734,-0.51379 5.518265,-1.247633 0,0 -5.916552,-7.748673 -9.035138,-10.492869 -1.56029,-1.369112 -3.24106,-2.6506 -5.046296,-3.645322 -1.808222,-0.984764 -3.425267,-1.650899 -5.632773,-1.661852 -0.758736,0 -1.547344,0.103555 -2.327987,0.330578 -1.35318,0.378373 -2.393704,1.076371 -3.363533,1.874936 -1.744496,1.466692 -3.313747,3.425268 -4.892955,5.713426 -4.40107,6.421381 -8.522344,16.164475 -10.974796,22.308051 1.309368,0.455043 3.84546,0.966841 6.729058,0.835407 0.21607,-0.547645 9.367708,-24.100342 15.515267,-25.071167 4.739614,-0.748779 12.125845,9.117784 13.510888,11.056445"
       fill="#ec008c"
       id="path142"
       style="fill-rule:evenodd" />
    <path
       d="m 70.887505,32.025294 c 10.107527,-2.55501 17.8094,-3.530813 20.240942,-3.939057 -3.212184,0.387334 -15.264347,2.214475 -26.135588,4.370203 -10.871242,2.163694 -16.231188,4.388126 -13.743886,11.354165 2.328982,6.491081 12.021295,17.928886 13.314732,19.431423 -0.89515,-1.173951 -5.684551,-7.605289 -7.32848,-11.509496 -5.755246,-12.189572 3.398383,-17.123351 13.65228,-19.707238"
       fill="#74bde9"
       id="path144"
       style="fill-rule:evenodd" />
    <path
       d="m 91.118788,33.429853 c 0,0 0.583491,-2.702376 0.0458,-5.348993 -0.01494,0.003 -0.02489,0.004 -0.03684,0.005 -2.431542,0.408245 -10.132419,1.384048 -20.239946,3.939058 -10.253897,2.584882 -19.407526,7.517666 -13.653276,19.708233 1.644925,3.903212 6.434326,10.33455 7.329475,11.508501 0.08563,0.102559 0.145375,0.180225 0.145375,0.180225 0,0 2.925418,-1.786317 4.668919,-4.648009 l 0.103554,-0.166285 C 69.698918,58.875409 61.694346,48.26405 62.484946,43.603097 63.357194,38.470174 84.287172,34.546053 91.118788,33.429853"
       fill="#0094d9"
       id="path146"
       style="fill-rule:evenodd" />
    <path
       d="m 14.996001,4.9673735 c 0.02589,0.031863 0.105546,0.1324304 0.136413,0.1712634 1.775364,2.236381 4.770481,5.8797111 8.615942,10.1712521 2.337944,2.593844 4.626102,4.964647 6.841573,6.779839 1.118191,0.903116 2.208501,1.681767 3.368512,2.277206 2.926413,1.502537 5.533201,1.507516 8.261467,-0.706959 1.713629,-1.426863 2.914464,-3.266949 4.040621,-5.345011 1.661852,-3.117591 3.056852,-6.841574 4.350288,-10.4839075 0.74878,-2.1427837 1.465696,-4.2547001 2.14378,-6.1634902 -0.90212,2.2055139 -1.84606,4.5534153 -2.934379,6.8415737 -1.628994,3.41531 -3.537784,6.730053 -6.394497,9.211381 -1.897837,1.651895 -4.313447,2.882601 -7.13531,3.169368 -0.242955,0.01991 -0.489893,0.02987 -0.736831,0.02987 -2.583886,-0.02987 -4.805332,-1.097281 -6.954089,-2.482324 -2.144776,-1.414914 -4.245739,-3.269935 -6.339733,-5.362933 -2.334957,-2.341927 -4.834207,-5.2056103 -7.12137,-7.93985 -0.01991,-0.021906 -0.04082,-0.045803 -0.06074,-0.068704 z"
       fill="#e9ec9a"
       id="path148"
       style="fill-rule:evenodd" />
    <path
       d="m 28.599192,18.437736 c 2.149754,1.385043 4.370203,2.451456 6.95409,2.482323 0.246937,0 0.493875,-0.01 0.737826,-0.03087 2.820867,-0.286766 5.236477,-1.516477 7.134315,-3.169368 2.856713,-2.480332 4.765503,-5.796071 6.394496,-9.211381 1.089315,-2.2881584 2.086028,-4.6141541 2.934379,-6.8415737 0.145375,-0.380364 0.185204,-0.5028372 0.31166,-0.87025692 C 52.912617,0.75578797 52.757285,0.71994214 52.594983,0.6831006 50.215219,0.17030619 47.948966,0.19022053 46.070048,0.6313233 44.870208,3.5647065 40.928164,14.203946 35.538346,15.008486 30.907265,15.700509 24.782607,8.5144173 18.679856,1.2725653 c -1.538383,0.3186295 -3.623415,1.3133511 -4.900921,2.2194538 0.08962,0.099572 0.03983,0.052773 0.132431,0.1593148 2.650599,3.237077 5.494368,6.5607811 8.348094,9.4234691 2.093993,2.092002 4.194957,3.948019 6.339732,5.362933"
       fill="#d7df23"
       id="path150"
       style="fill-rule:evenodd" />
    <path
       d="M 29.503502,26.803653 C 28.664113,24.865987 27.515055,23.060752 26.33513,21.306298 25.226896,19.653407 24.047967,18.044328 22.836179,16.46512 20.242336,13.079682 17.494156,9.8067588 14.641426,6.6373906 13.976287,5.9095212 13.299199,5.1726904 12.621115,4.4547782 c -0.01892,-0.019914 -0.02888,-0.030867 -0.04082,-0.040824 2.928405,3.2161669 7.789496,8.8340038 11.295417,16.3427078 0.986756,2.114904 3.559689,8.255492 -0.96485,12.258276 -4.669914,4.133223 -13.9699139,5.456531 -22.72027771,6.73304 4.11231251,-0.452055 8.22562071,-0.944935 12.31801871,-1.54834 2.943341,-0.431146 5.887677,-0.904111 8.780235,-1.568255 2.410632,-0.564571 5.08712,-1.222741 7.036735,-2.81091 1.025589,-0.831424 1.784325,-2.001392 1.92273,-3.333661 0.127452,-1.294433 -0.271831,-2.512195 -0.744797,-3.683159"
       fill="#fdc689"
       id="path152"
       style="fill-rule:evenodd" />
    <path
       d="m 8.4674805,9.6343005 c 4.5076125,5.1946575 6.3735865,6.8873765 9.6943035,13.5666485 2.577912,5.186691 -0.247933,6.689229 -3.765803,8.106135 -2.974207,1.2088 -13.7538429,2.942344 -13.7538429,2.942344 l -0.005974,9.96e-4 c -0.55760169,1.651895 -0.7019807,3.375482 -0.45603853,5.499347 l 0.009957,-9.96e-4 C 8.9404462,38.47127 18.240446,37.147961 22.911356,33.014739 27.4349,29.011955 24.862962,22.871367 23.87521,20.756463 20.369289,13.247759 15.509193,7.6299216 12.579793,4.4137547 c -0.01892,-0.021906 -0.04182,-0.04182 -0.04182,-0.04182 C 11.725468,4.9653821 11.02747,5.796806 10.044697,7.0275126 9.1634869,8.128776 8.5421593,9.301731 8.4704676,9.6343005"
       fill="#f7931e"
       id="path154"
       style="fill-rule:evenodd" />
    <path
       d="M 29.308541,41.80065 C 27.996185,40.476346 26.159087,39.881902 24.3658,39.583187 22.621303,39.306378 20.837974,39.27551 19.074558,39.296421 12.832406,39.399975 6.6141518,40.224429 0.42875588,41.064815 l -0.038833,0.006 c 5.32708762,-0.662152 9.39061002,-0.94394 12.52911112,-0.94394 3.349593,0.006 5.714421,0.307676 7.62122,0.952901 0.136413,0.04381 0.268844,0.08962 0.399283,0.136414 0.07269,0.02489 0.142387,0.05178 0.213083,0.07767 0.03585,0.01394 0.0707,0.02689 0.104551,0.04082 4.576316,1.76242 5.817976,5.478437 5.888672,9.994015 -0.01992,4.370203 -1.179925,9.846648 -2.666531,15.374871 -1.088319,4.01971 -2.362837,8.028468 -3.530814,11.416894 1.570246,-4.115299 3.211189,-8.207697 4.69879,-12.349881 1.576221,-4.411028 3.107634,-8.830022 4.20591,-13.395386 0.476949,-1.980481 0.887184,-4.000792 0.917056,-6.042012 0.02688,-1.614058 -0.300707,-3.332666 -1.461713,-4.532505"
       fill="#f69679"
       id="path156"
       style="fill-rule:evenodd" />
    <path
       d="m 27.145445,51.328469 c -0.0707,-4.515578 -1.312356,-8.231595 -5.888673,-9.994014 -0.03385,-0.01294 -0.0687,-0.02689 -0.10455,-0.04082 -0.0697,-0.02589 -0.140396,-0.05178 -0.212088,-0.07767 -0.131434,-0.0468 -0.263865,-0.0926 -0.400278,-0.135417 -1.906799,-0.645225 -4.270632,-0.947923 -7.62122,-0.953897 -3.1385014,0 -7.2020238,0.281788 -12.52911139,0.94394 0.53768735,3.337644 1.90580289,5.513287 2.48630609,6.292933 C 7.1962482,46.86666 10.478132,46.6715 12.918636,46.6715 c 9.236273,-0.03983 9.48122,2.628693 8.996305,9.893447 -0.403265,6.026081 -4.472762,16.568736 -5.539175,18.794164 0,0 0.778651,0.74878 1.764411,1.361146 1.280493,0.796574 2.652591,1.343222 2.79697,1.395995 0.006,0.002 0.01095,0.004 0.01095,0.004 1.168972,-3.388426 2.442495,-7.397184 3.530814,-11.416894 1.486605,-5.528223 2.646616,-11.004668 2.666531,-15.374871"
       fill="#ed1c24"
       id="path158"
       style="fill-rule:evenodd" />
    <path
       d="m 155.17438,52.701464 -0.006,6.174443 h -3.59254 l 0.011,-6.860492 c 0.0129,-0.670118 -0.0229,-1.268544 -0.12546,-1.767398 -0.19616,-0.973812 -0.76073,-1.573234 -2.07607,-1.573234 -0.54068,0 -1.11819,0.09957 -1.71861,0.328587 l -0.011,9.872537 h -3.61047 V 47.037824 c 1.7196,-0.580503 3.56267,-1.089315 5.69649,-1.089315 3.0011,0 4.76451,1.76939 5.26038,4.206906 0.11251,0.577516 0.16628,1.44379 0.17226,2.546049"
       id="path160"
       style="fill:#0094d9;fill-rule:evenodd" />
    <path
       d="m 243.85057,52.701464 -0.004,6.174443 h -3.59952 l 0.0119,-6.860492 c 0.009,-0.670118 -0.0119,-1.268544 -0.1165,-1.767398 -0.19715,-0.973812 -0.77268,-1.573234 -2.07507,-1.573234 -0.55362,0 -1.12616,0.09957 -1.72459,0.328587 l -0.0189,9.872537 h -3.60948 l 0.007,-11.838083 c 1.71263,-0.580503 3.56268,-1.089315 5.69749,-1.089315 2.99313,0 4.7675,1.76939 5.25142,4.206906 0.11749,0.577516 0.17624,1.44379 0.18022,2.546049"
       id="path162"
       style="fill:#0094d9;fill-rule:evenodd" />
    <path
       d="m 137.42064,48.636946 c -1.54535,0 -3.18928,1.959572 -2.65857,5.10803 0.32262,1.913768 1.40894,2.536092 2.11192,2.536092 0.57752,0 1.05944,-0.195161 1.47466,-0.565568 l -0.011,-7.022794 c -0.24195,-0.0239 -0.61037,-0.05576 -0.91705,-0.05576 z m 4.56138,10.238961 h -2.73324 c 0,0 -0.23101,-0.383351 -0.35647,-0.865278 -0.26586,0.2091 -1.09629,1.02061 -2.74619,1.02061 -2.27123,0 -4.39808,-2.104946 -4.98058,-4.962655 -1.08633,-5.380856 2.8149,-8.097173 6.56178,-8.097173 1.49855,0 3.28587,0.380364 4.24275,0.659165 z"
       id="path164"
       style="fill:#0094d9;fill-rule:evenodd" />
    <path
       d="m 187.68296,48.636946 c -1.54436,0 -3.19227,1.959572 -2.6516,5.10803 0.31066,1.913768 1.40595,2.536092 2.10793,2.536092 0.56557,0 1.06243,-0.195161 1.47864,-0.565568 l -0.0179,-7.022794 c -0.24694,-0.0239 -0.6054,-0.05576 -0.91705,-0.05576 z m 4.5554,10.238961 h -2.73225 c 0,0 -0.231,-0.383351 -0.34451,-0.865278 -0.27781,0.2091 -1.10923,1.02061 -2.74619,1.02061 -2.2792,0 -4.40804,-2.104946 -4.98755,-4.962655 -1.08932,-5.380856 2.80693,-8.097173 6.56675,-8.097173 1.49756,0 3.28886,0.413222 4.24375,0.692023 z"
       id="path166"
       style="fill:#0094d9;fill-rule:evenodd" />
    <path
       d="m 251.76672,48.636946 c -1.54535,0 -3.1833,1.959572 -2.65259,5.10803 0.32461,1.913768 1.40795,2.536092 2.12287,2.536092 0.56458,0 1.04949,-0.195161 1.4647,-0.565568 l -0.01,-7.022794 c -0.24495,-0.0239 -0.61337,-0.05576 -0.92503,-0.05576 z m 4.56039,10.238961 h -2.73822 c 0,0 -0.21906,-0.383351 -0.34751,-0.865278 -0.27581,0.2091 -1.10027,1.02061 -2.74121,1.02061 -2.2792,0 -4.40704,-2.104946 -4.98257,-4.962655 -1.09529,-5.380856 2.80593,-8.097173 6.56078,-8.097173 1.48761,0 3.28488,0.380364 4.24475,0.659165 z"
       id="path168"
       style="fill:#0094d9;fill-rule:evenodd" />
    <path
       d="m 212.96193,52.717097 0.011,6.158511 h -3.60848 v -6.838586 c 0.009,-0.680075 0,-1.29045 -0.0916,-1.796274 -0.19715,-0.925021 -0.75077,-1.571242 -2.10494,-1.571242 -0.54864,0 -1.5125,0.174251 -2.10594,0.523747 0.0368,0.07767 0.41123,1.257591 0.41123,2.716317 l 0.01,6.966038 h -3.63835 l 0.005,-6.860492 c 0.008,-0.704968 -0.0279,-1.319325 -0.13243,-1.822162 -0.1852,-0.945932 -0.76172,-1.523448 -2.04122,-1.523448 -0.56457,0 -1.11918,0.105546 -1.71761,0.330578 l -0.011,9.875524 h -3.61047 V 47.02259 c 1.45872,-0.531714 3.61047,-1.073384 5.69749,-1.073384 1.3482,0 2.44548,0.345514 3.28587,0.966842 1.06342,-0.522752 2.51518,-0.966842 4.20889,-0.966842 2.98716,0 4.75057,1.768394 5.24743,4.206906 0.11551,0.603405 0.19616,1.477644 0.18521,2.560985"
       id="path170"
       style="fill:#0094d9;fill-rule:evenodd" />
    <path
       d="m 221.90984,53.745374 c -0.51877,3.470075 -3.29682,2.719304 -3.62541,2.467388 v -7.520653 c 0.24794,-0.03386 0.65718,-0.06273 0.96286,-0.06273 1.54536,0 3.14747,1.94364 2.66255,5.115995 m -2.96325,-7.774561 c -1.49955,0 -3.28587,0.27681 -4.24176,0.542666 v 18.254486 h 3.60948 l -0.0299,-6.13561 c 0.37539,0.1394 1.38903,0.399282 2.0233,0.399282 2.78502,0 4.57931,-2.005374 5.10206,-4.607184 1.19486,-5.955385 -2.83083,-8.45364 -6.4632,-8.45364"
       id="path172"
       style="fill:#0094d9;fill-rule:evenodd" />
    <path
       d="m 124.02665,54.815471 c -0.33556,-1.615053 -1.5344,-2.639646 -2.84775,-3.360545 -1.38405,-0.766703 -2.27024,-1.181917 -2.38773,-1.725578 -0.0916,-0.482923 0.14836,-1.336253 1.19984,-1.36015 0.97381,-0.0229 1.64791,0.241959 2.91645,0.946927 v -2.663544 c -1.40794,-0.533705 -2.24235,-0.703972 -3.33167,-0.703972 -2.41063,0 -4.416,1.337248 -3.88728,3.967933 0.29971,1.487602 1.15304,2.306082 2.24933,3.03196 1.21079,0.769689 2.56596,1.452751 2.74618,2.35288 0.13741,0.691027 -0.27382,1.62501 -1.859,1.62501 -0.96684,0 -2.01732,-0.575524 -2.89555,-1.038533 v 2.76909 c 0.91208,0.344518 1.96157,0.591456 3.24206,0.591456 3.18231,0 5.47844,-1.341231 4.85512,-4.432934"
       id="path174"
       style="fill:#0094d9;fill-rule:evenodd" />
    <path
       d="m 97.802939,46.127738 c -2.976199,0 -4.682858,0.595439 -6.13561,1.089315 l 0.03485,11.658854 h 3.60848 l -0.02091,-9.766991 c 0.598426,-0.231006 1.606092,-0.3256 2.154732,-0.3256 0.196156,0 0.368415,0.0239 0.542666,0.0478 v -2.69939 c -0.0697,0 -0.127452,-0.004 -0.184208,-0.004"
       id="path176"
       style="fill:#0094d9;fill-rule:evenodd" />
    <path
       d="m 102.95707,58.875608 h -3.528822 l 0.0239,-12.70834 c 0,0 0.45803,-0.1394 1.751462,-0.149357 1.4657,-0.01593 1.77537,0.149357 1.77537,0.149357 z"
       id="path178"
       style="fill:#0094d9;fill-rule:evenodd" />
    <path
       d="m 130.41318,56.072764 c -0.11252,0.0229 -0.25192,0.0229 -0.42418,0.0229 -0.73384,0 -1.08334,-0.343522 -1.08334,-1.545353 V 42.107828 c 0,0 -0.3256,-0.173254 -1.81121,-0.162302 -1.32629,0.01295 -1.78731,0.162302 -1.78731,0.162302 h -0.0119 V 54.70664 c 0,3.916156 2.25032,4.561381 3.76979,4.561381 0.91208,0 1.54535,-0.127452 2.11092,-0.300707 z"
       id="path180"
       style="fill:#0094d9;fill-rule:evenodd" />
    <path
       d="m 230.60484,58.875608 h -3.52882 l 0.0239,-12.490278 c 0,0 0.47297,-0.252912 1.75744,-0.25789 1.46072,-0.01593 1.77138,0.25789 1.77138,0.25789 z"
       id="path182"
       style="fill:#0094d9;fill-rule:evenodd" />
    <path
       d="m 180.1402,55.806808 c -0.70198,0.219058 -1.65787,0.497858 -2.54804,0.497858 -2.50025,0 -3.43722,-2.491284 -3.43722,-5.639743 0,-2.965246 0.72787,-5.675588 3.29881,-5.675588 0.76173,0 1.75346,0.151349 2.57194,0.93697 l 1.83312,-2.423576 c -0.96386,-0.96485 -2.28318,-1.52046 -4.40506,-1.52046 -3.97291,0 -7.21895,2.588865 -7.21895,8.682654 0,6.225225 2.96326,8.694604 7.28168,8.694604 1.19486,0 3.12058,-0.392313 4.04361,-0.760728 z"
       id="path184"
       style="fill:#0094d9;fill-rule:evenodd" />
    <path
       d="m 162.62185,56.417979 c -0.73584,0 -1.77437,-0.622323 -2.10595,-2.558993 -0.33655,-1.994422 0.13741,-4.020707 1.39301,-4.94772 0.78363,-0.5347 1.67281,-0.378372 2.34193,-0.182216 l 0.0109,7.033747 c -0.46101,0.426167 -1.06044,0.655182 -1.63994,0.655182 m 3.40634,-14.472751 c -1.31534,0.01394 -1.77735,0.162302 -1.77735,0.162302 l 0.0109,3.95698 c -0.28776,-0.02489 -0.68007,-0.115503 -0.98078,-0.115503 -3.68913,0 -7.51866,2.362837 -6.31982,8.268437 0.58947,2.892559 2.69939,4.986552 5.22453,4.986552 0.90013,0 1.82216,-0.432141 2.60579,-1.031563 l 0.34651,0.702976 h 2.75615 V 42.10753 c 0,0 -0.37439,-0.173255 -1.86598,-0.162302"
       id="path186"
       style="fill:#0094d9;fill-rule:evenodd" />
    <path
       d="m 110.01949,48.414802 c 0.0179,-0.005 0.0289,0 0.0289,0 h 0.0139 c 0.93299,-0.07269 1.70666,1.015631 1.76242,2.61774 l -0.0169,0.749775 h -3.93706 c 0,0 -0.29075,-3.228115 2.14875,-3.367515 z m 1.19586,5.532205 c 0.70298,0 1.69471,-0.01892 2.31803,-0.06273 l 0.79956,-0.03684 c 0,-0.0458 0.25391,-1.130139 0.232,-2.35985 -0.0647,-4.305481 -2.13979,-5.469475 -4.70974,-5.539175 h -0.0139 -0.005 0.005 -0.0229 c -3.17036,0.0458 -5.4874,1.954593 -5.47648,6.596627 v 0.05676 c 0.12549,4.798362 2.26031,6.608576 5.66268,6.675289 0.0329,0 0.0329,0.01294 0.0329,0.01294 0.80952,0 2.38773,-0.138405 3.952,-0.921038 v -2.652591 c -1.46171,0.655182 -2.12884,1.000695 -3.62839,0.921038 -2.83581,-0.147366 -2.559,-2.690428 -2.559,-2.690428 z"
       id="path188"
       style="fill:#0094d9;fill-rule:evenodd" />
    <path
       d="m 84.886395,45.047385 c 0.530717,-0.438116 1.777355,-0.61137 2.965246,-0.61137 2.731252,0 3.770781,0.59046 3.770781,0.59046 l 0.794583,-2.711338 c 0,0 -2.064122,-1.070396 -6.238169,-0.697002 -3.909186,0.350492 -5.119979,1.385042 -5.119979,1.385042 v 15.96334 h 3.81758 l 0.01,-7.124357 h 3.188286 2.324005 V 48.889858 H 88.074681 84.886395 V 46.532 Z"
       id="path190"
       style="fill:#0094d9;fill-rule:evenodd" />
    <path
       d="m 273.47127,43.68853 c 0,1.035546 -0.84337,1.864978 -1.86896,1.864978 -1.03853,0 -1.86797,-0.829432 -1.86797,-1.864978 0,-1.027581 0.82944,-1.868962 1.86797,-1.868962 1.02559,0 1.86896,0.841381 1.86896,1.868962"
       id="path192"
       style="fill:#0094d9;fill-rule:evenodd" />
    <path
       d="m 282.31603,48.98017 c 0,-1.1859 -0.46102,-1.994422 -1.13512,-2.443491 -0.6741,-0.438115 -1.50652,-0.5347 -2.2782,-0.5347 -0.30469,0 -0.59942,0.01593 -0.87723,0.03784 -1.52245,0.121477 -2.8826,0.473961 -3.50592,0.725877 v 8.513383 h 2.7671 v -6.388522 c 0.54267,-0.106542 0.98078,-0.161306 1.30539,-0.161306 0.37936,0 0.61037,0.07269 0.70397,0.161306 0.10156,0.07966 0.15931,0.193169 0.17226,0.493876 0,0.260878 -0.0707,0.633276 -0.21607,1.108233 -0.19915,0.656178 -0.45306,1.384047 -0.70696,2.063127 v 2.723286 h 1.91377 c 0.0219,-0.07169 1.4179,-3.669218 1.64791,-4.718704 0.1384,-0.588469 0.2091,-1.11122 0.2091,-1.580203"
       id="path194"
       style="fill:#0094d9;fill-rule:evenodd" />
    <path
       d="m 263.25342,58.863959 h 16.68822 v -0.345514 -2.076071 h -16.68822 z"
       id="path196"
       style="fill:#0094d9;fill-rule:evenodd" />
    <path
       d="m 273.10077,46.819563 c 0,0 -0.34652,-0.09659 -1.49856,-0.09659 -0.87922,0 -1.5105,0.09659 -1.5105,0.09659 v 8.459614 h 3.00906 z"
       id="path198"
       style="fill:#0094d9;fill-rule:evenodd" />
    <path
       d="m 264.66047,52.556089 c -0.25491,-0.680075 -0.50583,-1.407944 -0.71493,-2.064122 -0.1384,-0.473961 -0.2081,-0.846359 -0.2081,-1.108233 0.005,-0.299711 0.0697,-0.414218 0.16031,-0.493876 0.10455,-0.08762 0.33555,-0.161306 0.71592,-0.161306 0.32361,0 0.76272,0.05476 1.29144,0.161306 v 6.388522 h 2.78104 v -8.512387 c -0.62431,-0.251916 -1.98347,-0.6044 -3.50691,-0.725878 -0.27781,-0.02191 -0.57752,-0.03784 -0.87524,-0.03784 -0.77367,0 -1.6051,0.09659 -2.28517,0.5347 -0.67908,0.449069 -1.13014,1.256595 -1.13014,2.44349 0,0.468983 0.0687,0.990739 0.20711,1.580204 0.232,1.049486 1.62601,4.647013 1.6509,4.717709 h 1.91377 z"
       id="path200"
       style="fill:#0094d9;fill-rule:evenodd" />
  </g>
</svg>
