<svg height="142.594998" viewBox="0 0 300 60.82" width="701.286873" xmlns="http://www.w3.org/2000/svg" xmlns:xlink="http://www.w3.org/1999/xlink"><radialGradient id="a" cx="0" cy="0" gradientTransform="matrix(-12.942 -9.9439 -9.9439 12.942 631.32 566.37)" gradientUnits="userSpaceOnUse" r="1"><stop offset="0" stop-color="#fab62e"/><stop offset=".2216" stop-color="#f03c37"/><stop offset=".51806" stop-color="#ed1c24"/><stop offset="1" stop-color="#91191e"/></radialGradient><path d="m0 0 .506.045c.025-.205.08-.371.168-.498.088-.135.222-.238.408-.318.186-.083.393-.122.621-.122.207 0 .389.028.545.092.156.061.272.145.35.25.078.106.115.223.115.348s-.037.236-.113.332c-.073.096-.196.176-.364.24-.109.043-.351.11-.72.199-.375.088-.635.174-.786.252-.193.102-.335.229-.433.377-.096.151-.143.321-.143.506 0 .205.059.395.174.576.119.176.287.311.512.405.221.091.469.138.744.138.299 0 .564-.051.795-.148.228-.096.406-.236.531-.426.123-.187.19-.4.197-.639l-.515-.041c-.026.26-.119.452-.279.582-.159.133-.395.198-.708.198-.326 0-.56-.061-.71-.178-.149-.119-.223-.262-.223-.43 0-.146.055-.267.158-.361.102-.094.375-.188.811-.289.433-.098.736-.186.896-.258.236-.111.412-.246.526-.414.109-.168.166-.359.166-.574 0-.219-.061-.422-.184-.612-.123-.193-.303-.341-.531-.445-.233-.107-.494-.162-.784-.162-.369 0-.677.057-.923.162-.246.108-.442.268-.584.483-.141.214-.217.457-.223.73" transform="matrix(2.71753206 0 0 -2.71753206 72.186999462 53.2569601538)"/><path d="m0 0v4.059h.537v-1.668h2.109v1.668h.536v-4.059h-.536v1.91h-2.109v-1.91z" transform="matrix(2.71753206 0 0 -2.71753206 83.0027770608 56.7897518318)"/><path d="m0 0h1.375l-.422 1.125c-.129.342-.226.621-.289.842-.053-.26-.125-.518-.217-.776zm-1.17-1.664 1.559 4.059h.576l1.662-4.059h-.611l-.475 1.227h-1.697l-.444-1.227z" transform="matrix(2.71753206 0 0 -2.71753206 96.0469309488 52.2786486122)"/><path d="m0 0v4.059h.551l2.131-3.188v3.188h.515v-4.059h-.552l-2.129 3.189v-3.189z" transform="matrix(2.71753206 0 0 -2.71753206 104.3354037318 56.7897518318)"/><path d="m0 0v.475l1.719.002v-1.504c-.266-.211-.539-.369-.819-.473-.279-.107-.566-.162-.861-.162-.4 0-.762.086-1.086.258-.328.172-.572.416-.738.742-.166.322-.248.682-.248 1.08 0 .394.082.762.246 1.103.164.342.402.598.711.762.312.168.668.252 1.072.252.293 0 .561-.047.797-.142.236-.096.422-.227.557-.397.134-.172.238-.392.306-.666l-.484-.133c-.061.207-.137.367-.227.489-.09.117-.218.21-.386.281-.166.074-.354.107-.559.107-.246 0-.459-.035-.637-.111-.179-.074-.324-.174-.433-.295-.11-.119-.198-.256-.258-.4-.102-.252-.152-.524-.152-.817 0-.363.062-.662.185-.908.125-.244.307-.426.545-.541.238-.119.49-.178.758-.178.23 0 .459.045.681.133.221.09.389.186.502.287v.756z" transform="matrix(2.71753206 0 0 -2.71753206 120.6405960918 52.4688758564)"/><path d="m0 0v4.059h.537v-1.668h2.109v1.668h.54v-4.059h-.54v1.91h-2.109v-1.91z" transform="matrix(2.71753206 0 0 -2.71753206 127.488776883 56.7897518318)"/><path d="m0 0h1.375l-.424 1.125c-.129.342-.224.621-.289.842-.051-.26-.123-.518-.219-.776zm-1.172-1.664 1.559 4.059h.578l1.66-4.059h-.613l-.471 1.227h-1.697l-.444-1.227z" transform="matrix(2.71753206 0 0 -2.71753206 140.532930771 52.2786486122)"/><path d="m672.39 556.58h.539v-4.059h-.539z" transform="matrix(2.71753206 0 0 -2.71753206 -1678.1618127237 1558.29687081536)"/><path d="m0 0 .506.045c.025-.205.08-.371.168-.498.086-.135.222-.238.406-.318.186-.083.395-.122.623-.122.207 0 .387.028.543.092.156.061.274.145.35.25.078.106.117.223.117.348s-.039.236-.113.332c-.073.096-.196.176-.364.24-.109.043-.351.11-.724.199-.369.088-.633.174-.782.252-.195.102-.339.229-.433.377-.096.151-.143.321-.143.506 0 .205.057.395.174.576.115.176.287.311.51.405.223.091.473.138.744.138.301 0 .564-.051.797-.148.23-.096.406-.236.529-.426.123-.187.19-.4.197-.639l-.511-.041c-.03.26-.121.452-.283.582-.159.133-.395.198-.706.198-.326 0-.56-.061-.71-.178-.149-.119-.221-.262-.221-.43 0-.146.053-.267.156-.361.104-.094.373-.188.809-.289.437-.098.738-.186.898-.258.236-.111.41-.246.524-.414.113-.168.169-.359.169-.574 0-.219-.062-.422-.185-.612-.125-.193-.303-.341-.535-.445-.229-.107-.492-.162-.78-.162-.367 0-.675.057-.923.162-.246.108-.444.268-.586.483-.139.214-.215.457-.221.73" transform="matrix(2.71753206 0 0 -2.71753206 156.8924737722 53.2569601538)"/><path d="m0 0v3.58h-1.336v.479h3.217v-.479h-1.344v-3.58z" transform="matrix(2.71753206 0 0 -2.71753206 170.4801340722 56.7897518318)"/><path d="m0 0c0-.49.131-.875.395-1.156.263-.283.591-.422.988-.422.408 0 .738.142.998.426.262.285.392.685.392 1.209 0 .33-.056.619-.168.865-.111.246-.275.437-.49.57-.213.139-.455.205-.722.205-.381 0-.707-.129-.981-.388-.275-.266-.412-.7-.412-1.309m-.555.006c0 .674.184 1.201.543 1.582.362.383.83.574 1.403.574.373 0 .709-.09 1.011-.269.303-.18.53-.43.688-.748.158-.325.236-.684.236-1.092s-.08-.776-.248-1.102c-.166-.326-.402-.572-.707-.738-.303-.166-.631-.252-.986-.252-.379 0-.721.094-1.022.277-.301.184-.529.436-.683.756-.155.32-.235.658-.235 1.012" transform="matrix(2.71753206 0 0 -2.71753206 178.1435744814 51.4362136736)"/><path d="m0 0 .537-.137c-.111-.439-.314-.777-.607-1.008-.291-.232-.651-.347-1.073-.347-.437 0-.793.09-1.066.269-.273.178-.482.436-.627.774-.143.336-.215.699-.215 1.084 0 .424.084.795.246 1.107.16.315.389.555.688.719.297.162.625.244.982.244.406 0 .748-.105 1.026-.31.275-.209.47-.499.58-.875l-.532-.122c-.093.293-.232.51-.41.645-.177.135-.404.201-.674.201-.312 0-.574-.074-.779-.223-.211-.15-.361-.351-.443-.601-.086-.256-.127-.514-.127-.781 0-.344.049-.645.15-.901.1-.258.258-.451.469-.578.213-.131.441-.191.688-.191.3 0 .554.088.765.26.209.173.348.429.422.771" transform="matrix(2.71753206 0 0 -2.71753206 196.921721016 52.9308563066)"/><path d="m0 0v4.059h.539v-2.014l2.014 2.014h.726l-1.699-1.647 1.775-2.412h-.707l-1.447 2.053-.662-.649v-1.404z" transform="matrix(2.71753206 0 0 -2.71753206 200.1284088468 56.7897518318)"/><path d="m0 0v4.059h2.93v-.479h-2.395v-1.244h2.242v-.475h-2.242v-1.382h2.49v-.479z" transform="matrix(2.71753206 0 0 -2.71753206 214.7759066502 56.7897518318)"/><path d="m0 0 1.57 2.113-1.381 1.946h.637l.735-1.041c.154-.217.263-.383.33-.5.089.148.195.302.318.461l.816 1.08h.584l-1.423-1.914 1.535-2.145h-.662l-1.024 1.449c-.056.08-.115.174-.178.272-.089-.149-.154-.25-.191-.309l-1.018-1.412z" transform="matrix(2.71753206 0 0 -2.71753206 223.8796390512 56.7897518318)"/><path d="m0 0 .539-.137c-.111-.439-.316-.777-.607-1.008-.289-.232-.651-.347-1.071-.347-.437 0-.795.09-1.068.269-.273.178-.482.436-.625.774-.143.336-.213.699-.213 1.084 0 .424.08.795.242 1.107.16.315.389.555.69.719.297.162.623.244.982.244.406 0 .746-.105 1.022-.31.279-.209.472-.499.582-.875l-.53-.122c-.095.293-.232.51-.412.645-.177.135-.4.201-.674.201-.31 0-.572-.074-.781-.223-.209-.15-.357-.351-.439-.601-.088-.256-.129-.514-.129-.781 0-.344.049-.645.148-.901.104-.258.26-.451.471-.578.211-.131.441-.191.689-.191.301 0 .555.088.762.26.211.173.352.429.422.771" transform="matrix(2.71753206 0 0 -2.71753206 243.1469413566 52.9308563066)"/><path d="m0 0v4.059h.535v-1.668h2.11v1.668h.537v-4.059h-.537v1.91h-2.11v-1.91z" transform="matrix(2.71753206 0 0 -2.71753206 246.4623304698 56.7897518318)"/><path d="m0 0h1.375l-.426 1.125c-.129.342-.224.621-.285.842-.055-.26-.127-.518-.219-.776zm-1.172-1.664 1.557 4.059h.578l1.662-4.059h-.613l-.471 1.227h-1.699l-.444-1.227z" transform="matrix(2.71753206 0 0 -2.71753206 259.5064843578 52.2786486122)"/><path d="m0 0v4.059h.551l2.129-3.188v3.188h.517v-4.059h-.554l-2.129 3.189v-3.189z" transform="matrix(2.71753206 0 0 -2.71753206 267.7949571408 56.7897518318)"/><path d="m0 0v.475l1.719.002v-1.504c-.264-.211-.535-.369-.819-.473-.279-.107-.566-.162-.861-.162-.396 0-.76.086-1.088.258-.326.172-.57.416-.736.742-.168.322-.25.682-.25 1.08 0 .394.082.762.25 1.103.166.342.402.598.713.762.31.168.666.252 1.068.252.295 0 .561-.047.799-.142.236-.096.42-.227.557-.397.134-.172.236-.392.304-.666l-.484-.133c-.061.207-.133.367-.227.489-.09.117-.216.21-.384.281-.168.074-.356.107-.561.107-.246 0-.457-.035-.637-.111-.179-.074-.322-.174-.433-.295-.11-.119-.196-.256-.256-.4-.106-.252-.153-.524-.153-.817 0-.363.061-.662.186-.908.123-.244.307-.426.543-.541.238-.119.49-.178.762-.178.23 0 .455.045.677.133.219.09.389.186.504.287v.756z" transform="matrix(2.71753206 0 0 -2.71753206 284.0729741802 52.4688758564)"/><path d="m0 0v4.059h2.934v-.479h-2.397v-1.244h2.246v-.475h-2.246v-1.382h2.492v-.479z" transform="matrix(2.71753206 0 0 -2.71753206 290.9211549714 56.7897518318)"/><path d="m0 0c-.006.037-.012.062-.012.062h.002c-.008.069-.029.137-.066.206-.174.234-.895.431-1.242.462-.26.028-1.059-.404-1.58-.519-.491-.09-1.038.057-1.038.057s.059.521.059 1.185c0 .606-.09 1.602-.059 1.717.03.115.52.086.719.086.213 0 .996-.047 1.508-.057.248-.06.461-.215.586-.025.15.236.549 1.086.398 1.506-.066.185-.166.304-.255.384-.002.012-.004.022-.008.032-.199.164-.635.312-.957.269-.549-.088-1.645-.377-1.789-.232-.116.172.058 1.422-.03 1.855-.086.399-.779.717-1.127.864-.318.115-.836-.342-.98-.637-.117-.285-.029-1.182-.029-1.182l.144-2.66-.115-3.535c-.145-.088-1.588-.293-2.77-.318-.664-.034-1.185-.233-1.211-.291-.06-.12-.236-.377-.033-.723.174-.373.725-.832 1.041-1.067.24-.175.639-.033 1.004.137l-.017-.006c1.007.614 4.353.821 5.191.862.135.013.627.031.814.048.354.043.735.088.975.116.029.004.057.006.082.013.447.08.666.62.666.62h.014c.076.173.113.339.125.476-.01.086-.002.191-.01.295" transform="matrix(2.71753206 0 0 -2.71753206 97.5415735818 31.2177751472)"/><path d="m0 0s-.289-.549.311-.736c.601-.192.839.097 1.23.072.387-.022.287.643.287.643" transform="matrix(2.71753206 0 0 -2.71753206 138.5763076878 18.7443029918)"/><path d="m0 0c.211-.268.672-.324.922-.268.275.09.211-.056.15-.179-.06-.119-.492-.746-.521-.869-.071-.278.043-.483.224-.545.1-.047.291-.114.473-.041.061.007.117.027.162.078.367.42.738.777.797.986.092.33.123.422.033.514-.092.056-.279.24-.248.355.094.211.797.239 1.26.303.154.029.305.061.371.119 0 0 .764-1.047 1.041-1.139.275-.091.553-.152.734-.091.278.091.618.361.524.72-.092.391-.524.481-.736.539-.215.059-.645.028-.676.178-.03.151 0 .301.123.301s.801.18 1.137.269c.335.088.335.452.335.659 0 .181-.371.689-.707.72-.306.028-.488 0-.611-.089-.123-.092-.459-.391-.83-.54-.152-.033-.4-.15-.705-.269-.484-.207-1.084-.41-1.598-.418-.269 0-.746.014-1.086.094-.418.095-.814-.012-.925-.242-.002-.004-.002-.008-.002-.008-.004-.008-.008-.01-.01-.018-.033-.058-.043-.144 0-.308.123-.387.215-.627.369-.811m8.408-6.168c-.09.059-2.088.75-2.486.99-.555.297-1.442.926-1.721 1.106-.152.123-.431.211-.459.33-.031.092-.031.24 0 .332.016.043.121.16.231.293.148.146.371.355.591.603.268.297.055.377-.265.948-.319.572-.774.525-.774.525l-.005-.025c-.063-.014-.12-.038-.147-.1-.029-.088-.092-.209-.121-.393-.031-.117-.031-.265-.031-.414.06-.363-.336-.75-.489-.779-.156-.059-.433.416-.771.598-.305.181-.611.181-.611.181s-.371-.24-.309-.541c.063-.271.156-.361.369-.537.215-.181.768-.633.707-.781-.031-.207-.369-.508-.738-.865-.367-.364-.768-.752-1.106-.84-.675-.15-1.041.029-1.226-.031-.184-.063-.246-.389-.031-.541.216-.176.521-.387.888-.625.34-.211 1.108.089 1.354.238.304.176.734.598 1.072 1.047.246.299.459.752.584.81.072.069.123.084.17.075 2.025-2.395 2.684-2.385 2.764-2.37.021-.003.039 0 .058-.005.045-.024.123-.028.239.005.05.01.099.02.142.034.369.07.996.119 1.371.142.096.006.188.012.279.02.016 0 .026.002.026.002v.002c.183.017.35.054.445.115.278.182.092.39 0 .451m-5.308 8.773c.021-.007.039-.017.06-.027.031 0 .061-.029.092-.029.432-.121.646-.092.859.15.184.24.246.479.217.629-.033.149-.279.656-.402.746-.121.092-.242.18-.369.238-.03.032-.151.09-.305.155-.244.088-.52.178-.643.088-.035-.014-.076-.037-.117-.057l-.004.008s-.572-.283-.425-.793c.117-.416.482-.912 1.037-1.108" transform="matrix(2.71753206 0 0 -2.71753206 210.645257919 21.38030909)"/><path d="m0 0c-.287.029-1.094-.289-1.354-.432h-.029c-.291-.117-1.33.055-1.472-.031-.028-.012-.04-.029-.051-.055l-.01.018s-.004-.012-.008-.029c-.012-.037-.017-.084-.017-.133-.024-.156-.051-.397-.043-.553 0-.029 0-.058.011-.088.002-.019.006-.043.014-.056.004-.006.006-.006.01-.01.002-.008.002-.01.008-.018.041-.097.205-.154.363-.172.012-.002.021-.009.039-.009.023-.002.045.004.068.007.03.002.053.004.078.008.014 0 .03 0 .043.002.036.012.065.02.088.037.125.049.227.137.272.264.037.104.097.182.152.238.104.086.215.155.309.172.058.031.117.031.146.031.145.028.172-.031.201-.115.03-.115-.048-.597.096-.683.172-.086.375.027.664.086.231.085.52.115.606.23.171.291.253.828.168.973-.09.115-.235.318-.352.318m-5.975-1.705c-.027-.055-.142-.055-.228-.055-.115.026-.201.055-.264.086-.053.035-.092.199-.094.297.008.051.04.141.112.221.045.017.097.029.17.021.289-.025.394-.051.394-.051.084-.054-.06-.433-.09-.519m1.534 1.156c-.012.006-.022.012-.032.018-.375.373-1.73.416-2.207.064-.527-.39-.754.11-.754.11h-.002c-.035.068-.082.132-.154.183-.146.117-.492.088-.547-.258-.088-.349.143-.839.346-1.214.131-.286.299-.69.512-.903h-.004s.275-.318.494-.424l-.004-.002s-.092-.193 1.57.26c.233 0 .496.324.473.584.035.164.109.416.277.658.119.057.225.287.118.703-.014.102-.041.184-.086.221m4.673-1.443c-.056.318-.056.461-.171.461-.116 0-1.038-.088-1.272-.174-.018-.01-.033-.016-.051-.02-.168-.046-.447-.095-.84-.111-.464-.016-.703-.049-.814-.068-.016.006-.031-.002-.049-.006-.019-.008-.027-.008-.027-.008l.004-.006c-.092-.056-.182-.207-.209-.326l-.004.008s-.002-.029 0-.072c0-.01-.004-.02-.002-.026 0 0 .004-.004.004-.01.013-.152.07-.445.324-.654 0 0 .133-.117.879-.059h-.006c.977.016 1.51.149 1.791.276.033.012.059.025.084.041.191.098.234.185.234.185h-.002c.172.184.153.305.127.569m-6.597 7.623c.08-.076.179-.156.291-.231.068-.052.133-.097.185-.119.45-.258 1.016-.404 1.426-.049.588.5-.353 1.452-.353 1.452-.756.793-1.381.92-1.731.908-.158-.028-.359-.106-.465-.336-.23-.604.27-1.279.647-1.625m5.412-2.176c-.131-.051-.285-.098-.43-.135-.088-.029-.174-.029-.232-.058-.131-.014-.326-.026-.502-.02-.108.028-.172.057-.215.096-.125.142-.084.377-.061.465.043.113.098.24.143.334.111.181.328.32.328.32.164.039.402.039.649-.186.091-.082.152-.123.197-.144.021-.014.347-.231.347-.385 0-.088-.046-.193-.224-.287m-.777-2.129c.027.059.173.145.347.233.145.029.289.086.406.113.174.031.202-.287.055-.315-.115-.031-.289-.203-.432-.318h-.029c-.115-.086-.203-.115-.32-.059-.115.059-.055.231-.027.346m4.07 2.34c-.481.275-1.371.334-1.883.502-.148.035-.334.262-.34.428-.01.168.307.509.723.591.422.086.135.471.076.555-.061.084-.098.225-.061.541.043.319-.044.401-.044.401h-.002c-.047.171-.243.269-.391.277-.035.01-.406.096-.635-.227-.236-.338-.135-.439-.387-.713 0 0-.22-.226-.199-.41-.006-.068.018-.129.082-.156.096-.031.219-.016.342.008.123.004.34-.026.238-.307 0 0-.004-.002-.004-.006-.154-.218-.361-.463-.412-.523-.304.076-.675.08-.826.281-.058.086-.029.285 0 .488.057.204.115.379.145.434 0 .088-.03.262-.145.406-.058.118-.203.231-.347.231l-.012-.002c-.27.043-.942.099-1.203-.346l-.002-.002c-.02-.043-.039-.094-.051-.15-.006-.022-.012-.043-.012-.067-.002-.013 0-.031 0-.046.01-.168.074-.366.125-.483.088-.178.317-.377.172-.666-.172-.26-.228-.519-.49-.605-.229-.114-.516-.114-.606-.26-.259-.375.09-.549.116-.838.029-.52-.578-1.385-.897-1.703-.056-.057-.084-.088-.115-.088 0 0-.172-.172.115-.258.031-.01.061-.01.092-.01l-.006-.004s.717.065 1.045.909c.256.666.771.89 1.035.949.076.004.174-.012.242-.104.09-.205-.289-.5-.328-.531-.025-.016-.051-.033-.082-.068-.15-.139-.392-.481-.324-1.199h-.004s-.006-.098.031-.219c0-.016 0-.03.004-.041.02-.053.047-.1.084-.143.026-.037.059-.076.098-.107l-.014.002s.039-.03.102-.069c.015-.007.027-.013.043-.027.172-.1.48-.252.779-.238.057-.002.1 0 .141.013l-.004-.002s.342.108.717.211c.214.057.587-.017.722.094.139.111.164.19.067.606-.079.3.062.545.138.65.119.096.211.193.188.281-.03.203-.145.405-.287.434-.176.027-.465-.086-.692-.086-.146 0-.379-.088-.58-.176-.146-.088-.291-.146-.375-.172-.092-.054-.162-.047-.215-.019-.297.123.182.515.182.515l-.002.004c.088.065.176.137.236.221.028.029.086.057.174.115.346.117.922.172 1.096.26.232.088.318.26.519.174.174-.086.608-.752 1.301-.752.692 0 .922.289 1.18.318.291.028.408-.029.494.145.143.345-.232.461-.867.779m-10.102-.434c.256.059.895.116.864-.056-.022-.115-.098-.141-.17-.199 0 0-.354-.243-.088-.61.115-.172.289-.461.174-.779-.02-.041-.041-.076-.059-.111-.033-.069-.063-.163-.08-.27 0-.105.01-.244.066-.41.002-.008 0-.01.002-.014.049-.146.143-.31.502-.465.084-.029.203-.06.348-.089.459-.084 1.01-.03 1.213.232.258.318-.059.434-.174.463s-.551.088-.58.23c-.029.317.58.405.779.606.174.172.088.349.088.349-.062.354-1.09.467-1.09.467l-.008-.008c-.082.008-.164.016-.228.03-.088.029-.145.058-.145.115 0 .146.03.435.145.519h.027c.231.059.721.26.897.26.056 0 .289 0 .402.029.023.008.049.016.076.028.551.131.526.48.526.48.015.414-.164.578-.305.643 0 0-.006.002-.01.004-.088.039-.16.039-.16.039l-.008-.002c-.269.047-.769.039-.986-.008-.113-.029-.287-.059-.459-.115-.32-.086-.664-.174-1.012-.26-.521-.117-1.556-.203-1.644-.377-.145-.228 0-.404.314-.488.291-.088.492-.289.783-.233" transform="matrix(2.71753206 0 0 -2.71753206 160.5611420532 30.1851129644)"/><path d="m0 0c-.023-.027-.047-.047-.07-.078-.289-.348-.584-.295-.733-.233-.107.053-.209.143-.252.291-.023.028-.039.075-.043.143-.031.424.328.971.541 1.244.123.145.328.209.481.238.265.03.808.051.758-.246 0 0-.286-.808-.682-1.359m4.729 2.629c-1.366.176-3.299 1.025-3.573 1.115-.273.088-.273.375-.273.375h-.002c.002.078.027.145.117.154 0 0 1.273-.201 1.414.463 0 0-.023.403-.469.496-.015.006-.031.012-.045.016-.023 0-.056.002-.097.002-.028.002-.055.002-.082.002-.186 0-.477-.016-.754-.082l.004.008s-.049-.016-.125-.039c-.03-.01-.055-.02-.082-.028-.297-.099-.83-.283-.965-.377-.174-.125-.252.094-.227.219.053.092.176.209.483.32.629.223 1.117.301 1.189.301.076 0 .707-.013.615.588-.037.25-.084.381-.166.442-.064.062-.252.187-.509.009-.323-.226-.918-.351-1.121-.384-.071-.02-.159-.022-.225.025-.065.049-.09.131-.094.221.051.3 1.102.828 1.102.828l-.004-.002c.181.076.34.144.431.187.299.153 1.563.811 1.807 1.176.02.024.031.053.047.086.002.012.008.023.01.035.01.031.015.067.021.104 0 .011.006.023.006.031h-.004c.002.029.01.057.006.088.004.088-.064.488-.803.676-.533.134-.754-.012-.836-.104l-.004.002s-.011-.014-.031-.043c-.006-.012-.01-.023-.01-.023-.005-.01-.011-.018-.015-.03-.002-.004-.004-.009-.008-.017-.006-.012-.012-.02-.014-.03-.041-.095-.097-.248-.172-.496-.164-.531-1.089-1.367-1.296-1.49-.022-.012-.037-.019-.041-.017-.032.005-.047.023-.051.06-.028.115.025.365.025.365l.002.002c.094.467.379 1.614.373 2.012-.006.477-.541.545-.541.545l-.002.004c-.01 0-.676.144-.699-.59-.027-.74.285-2.748-.176-3.42-.008-.014-.011-.018-.017-.027 0 0-.448-.537-1.213-.6-.764-.062-.649-.617-.338-.779.314-.162.691.113.789.113.049 0 .082-.019.102-.045.037-.101.066-.254-.108-.312 0 0-.312-.057-.687-.203-.668-.229-1.561-.604-1.649-1.067 0 0 .233-.666.951-.375 0 0 .379.348.53-.014 0 0 .002-.009.004-.011.037-.106.054-.262-.042-.436 0 0-1.431-1.17-1.673-1.289l-.047-.017c-.033-.008-.108-.034-.184-.071l-.012-.004c-.007-.006-.011-.007-.015-.009-.086-.047-.164-.102-.193-.172-.239-.325.091-.731.345-.91.297-.213.535.085.535.085.409.28 1.241 1.241 1.645 1.725l-.016-.008 1.09 1.407c.453.589.902.433 1.026.378.552-.322 1.242-.968 1.242-.968l.013-.004c.145-.145.237-.276.198-.344 0 0 .088-.119-.346-.148 0 0-.404.06-.979 0-.16-.018-.332-.043-.509-.077l-.006.006s-1.156-.183-1.502-.449c-.006-.004-.006-.008-.012-.01-.019-.017-.035-.031-.051-.05-.004-.006-.009-.01-.013-.016-.01-.02-.018-.037-.02-.057-.01-.045-.016-.094.006-.152 0 0 .027-.145.201-.088 0 0 .063.004.137-.01.043-.025.099-.09.144-.215l-.003-.005.007-.004c.026-.073.041-.155.049-.27-.019-.123-.076-.289-.23-.514-.018-.023-.026-.043-.037-.06-.055-.078-.122-.172-.184-.272-.033-.029-.391-.355-.533-.619-.133-.25.015-.381.152-.506.537-.111 1.158.75 1.158.75.127-.105.28-.295.479-.607.287-.459.525-.615.685-.656.024-.008.049-.014.082-.014.041 0 .092.004.147.016l.004.002h-.004c.16.033.344.134.428.414 0 0 .588.556.937 1.133.219.439.287 1.109.309 1.441l-.004.006c-.006.045 0 .111.012.179v.01h.001c.026.127.075.262.075.262.349.371.925-.195 1.004-.277.193-.129.804-.541 1.601-.428.299.043.522.139.692.24.015.008.027.014.037.022.011.009.025.015.039.021.051.025.179.098.236.209.057.061.098.117.121.16.194.28.326.668-.722.805m-7.768 4.547c.123-.055.226-.092.32-.121.039-.012.067-.03.112-.035.375-.118.892.025.892.025.319.146.143.836.143.836 0 .463-.545.551-1.035.492-.348-.021-.694-.092-.846-.123-.143-.016-.404-.078-.414-.297-.014-.303.449-.613.828-.777" transform="matrix(2.71753206 0 0 -2.71753206 185.3993850816 36.7071899084)"/><path d="m0 0c-.09-.014-.227-.037-.387-.045-.064.004-.131.006-.199.016-.172 0-.4.027-.547.058-.029.006-.058.014-.088.028-.414.187-.238.701-.164.873.043.088.098.172.158.242.215.236.387-.051.452-.203.062-.147.312-.278.476-.301.063-.008.11-.025.143-.043.058-.012.117-.02.17-.031.021-.004.041-.008.06-.01.098-.018.176-.027.215-.037.088-.024.15-.074.164-.203.029-.244-.406-.334-.453-.344m4.062 2.281c-.087.201-.144.287-.287.287-.117 0-1.212-.115-1.244-.058-.027.058.174 1.183.032 1.82-.206.809-2.372.145-2.372.145s-.142-.205.09-.377c.201-.145.893-.285.951-.604.145-.551-.115-1.389-.318-1.471-.172-.117-.807-.06-.807-.06v.303c.047.068.108.021.434.197.102.057.135.135.139.223.017.029.013.095-.039.23 0 0-.004.008-.008.014-.012.033-.029.066-.053.099-.197.317-.553.336-.709.328-.027 0-.051 0-.082-.009-.172-.059-.143-.52-.115-.692.029-.146-.088-.521-.26-.58h-.029c-.076-.012-.114.112-.125.287.111.676.373 1.266.472 1.473.049.068.098.143.143.234.174.405.375.635.434.809.029.115.492.144.892.318.262.115.522.315.58.549.115.402.057.402-.117.518-.373.287-.807-.116-1.269-.289-.405-.118-.809-.174-.838-.118l.004.1c-.002-.002-.004-.01-.004-.01 0 .037.002.082.009.131l-.005-.121c.035.102.128.264.267.447.076.075.154.172.215.285.102.125.207.25.314.372.034.037.067.07.098.107.152.117.307.279.391.484.115.225.138.485-.022.909-.236.634-.81.695-1.047.691-.017.002-.039.002-.062-.004-.026 0-.041-.002-.041-.002v-.006c-.145-.035-.334-.183-.52-.611-.367-.854-.617-1.568-.617-1.568s-.23-.54-.328-1.09c-.018-.063-.039-.117-.039-.17 0-.071-.002-.178.002-.289.004-.084.012-.164.031-.241.006-.021.006-.046.016-.068l.002.01c.027-.074.066-.135.125-.16.232-.088.492-.174.98.054.031 0 .059.032.088.032.031.013.057.021.086.031.057-.006.313-.043-.062-.434-.417-.435-.836-1.465-.86-1.734-.004-.031-.01-.061-.014-.098l-.011-.006s.033-.818-.785-.918c-.635-.08-1.368.024-1.866-.361-.006-.002-.007-.002-.009-.004-.059-.027-.088-.056-.147-.115 0 0-.033-.051-.076-.117-.053-.071-.098-.145-.141-.24-.125-.202-.304-.491-.433-.649-.219-.269-.451-.135-.569-.135-.093 0-.384.088-.693-.17-.07-.046-.137-.121-.188-.209-.019-.021-.039-.042-.054-.072l.01-.008c-.09-.193-.122-.431-.047-.652.174-.435.896-1.357 1.299-1.357.384 0 .699.14.945.271.709.375.701 1.113.701 1.113v.008c-.064.346-.549.655-.549.832 0 0-.031.664.26.809.113.058.518 0 .836.058.375.055.666.2.723.114.173-.346-.231-.895-.377-1.125-.17-.231.029-.866.291-.866.23 0 1.414-.06 1.73-.175.029 0 .057 0 .086-.028.117-.089.029-.23-.086-.404-.014-.029-.037-.066-.06-.107h-.018s-.25-.405-.184-.536c.069-.136.35-.4.453-.419.09-.016.333-.055.553.123.174.125.369.304.584.447.26.146.635.433.666.521.028.086.549 0 .776.057.205.059.521.664.548.898.03.2-.054.403-.201.457-.174.061-.693.176-.693.405 0 .232.088.435.119.609.027.143.027.518.258.576.232.059 1.269-.029 1.473.145.173.144.458.431.374.607m-9.103.139c.139.023.275.082.387.141.086.037.168.07.265.121 1.155.582.451 1.371-.599 1.869-1.053.502-1.188-.315-1.188-.315-.166-.972.385-1.654.403-1.705.011-.039.148-.271.732-.111m-.252 4.273c.223-.263.461-.545.625-.791.088-.162.215-.396.246-.48.051-.135.535-.301.986-.135.206.076.338.199.426.328.043.053.078.117.106.192.025.068.039.125.049.168.033.162.046.314.046.379-.013.062-.033.125-.05.189-.307.771-1.248 1.25-1.248 1.25-.088.059-.176.088-.233.115-.23.078-.447 0-.678-.135-.138-.115-.4-.404-.337-.933.011-.055.033-.108.062-.147" transform="matrix(2.71753206 0 0 -2.71753206 121.2928037862 33.473326757)"/><path d="m0 0c0 .012.002.018.002.027.008.014.016.024.021.039.012.02.018.043.028.063.013.033.049.064.09.092.029.027.054.041.08.05.273.141.756.233.756.233.252.088.252.027.3-.063.051-.087-.111-.414-.201-.525-.082-.107-.264-.273-.424-.293-.021-.006-.045-.008-.068-.012-.012-.006-.016-.007-.025-.011-.051-.012-.104-.034-.161-.063l-.009-.006c-.114-.058-.227-.131-.352-.176-.09-.037-.123.02-.139.098-.002.006 0 .016-.002.026 0 .017-.001.035-.001.052-.004.067.001.139.023.217-.008-.014-.027-.043-.027-.027.007.011.019.021.027.029.021.088.049.172.082.25m1.277 4.719c-.144-.145-.375-.492-.693-.895-.147-.17-.287-.344-.463-.551-.781-.894-1.73-1.787-1.73-1.933-.032-.227-.12-.373-.032-.459.088-.088.664.14.694.058.029-.087.058-1.646-.084-1.906-.145-.234-.289-.234-.319-.431-.029-.204.145-.231.145-.377 0-.145-.205-2.014-.09-2.477.115-.432.289-.461.434-.377.172.086.521.291.576.52.039.181.129 1.724.176 2.127 0 .011-.004.017-.004.033.011.513.275.449.275.449 1.617.049 1.465.664 1.465.664h.016c.023.191.062.381.125.475.115.172.49 1.154.377 1.502-.118.345-.522.548-.666.548-.051 0-.276-.15-.497-.287l-.005.004s-.62-.42-.942-.209c-.029.143-.084.492 0 .547.057.031.289.145.549.293.121.076.25.158.355.24.004.004.01.004.014.006.512.391.787.252 1.242.555.45.299.024 1.601-.316 1.937-.338.34-.602-.056-.602-.056m6.35-3.586.004.002c.015.365-.252.336-.252.336-.545-.151-.709.14-.754.256-.016.054-.039.105-.072.146-.002.002-.006.002-.008.008-.178.176-.453.207-.453.207-.188.019-.389-.016-.487-.139-.201-.26-.169-.722-.343-.781-.176-.055-.723-.17-.752-.027-.026.13-.006.734-.11.974-.035.26.036.387.094.442.008.006.016.015.027.023.014.01.028.018.028.018l.004.009c.236.17.822.442.822.442l.018-.002c.304.137.66.307 1.097.58 1.028.639.479 2.227-.162 2.227-.408 0-.637-.239-.746-.415-.043-.054-.076-.111-.092-.171-.113-.52-.836-1.528-1.181-1.788-.346-.263-1.387-1.126-1.475-1.416-.172-.435.436-.402.492-.607.117-.316.029-.834-.115-1.646-.201-1.125-.742-3.563-.772-3.793-.029-.436.579-.635.809-.465.143.119.346.408.432.75.06.205.027.435.09.668.142.605.365 2.379.507 2.609.147.231.637.551.84.518.115 0 .26-.024.287-.287.032-.836-.115-2.799-.056-3.375 0 0 .088-1.473.029-2.022-.035-.316-.102-.48-.137-.601l-.004.001s-.002-.013-.004-.035c-.011-.047-.015-.091-.007-.129-.004-.168.019-.425.179-.656.024-.047.055-.084.098-.117.004-.004.006-.01.012-.014.084-.084.15-.097.201-.074.033-.004.064 0 .094.01.13.041.375.232.488.435 0 .01.002.02.012.032.002.004.003.004.003.004.028.056.047.111.047.164 0 .115.02.525.041.929-.004.582-.011 1.483-.004 2.914.006 2.147.114 2.797.192 2.981l-.004.002s.004.01.018.021c.015.028.027.037.039.041.078.065.242.16.556.151.16-.024.256.058.305.117 0 0 .002.004.004.006.015.017.029.041.039.06v-.006c.008.006.008.012.012.022.029.057.052.117.064.18v.021c.024.109.018.188.006.26" transform="matrix(2.71753206 0 0 -2.71753206 279.2085917928 23.4728087762)"/><path d="m0 0c-.035-.064-.072-.119-.102-.162-.15-.195-.554-.971-.734-1.186-.197-.328-.57-.886-.926-1.224-.172-.192-.402-.34-.578-.366-.191-.027-.543.176-.703.237-.191.084-.447.174-.447.349 0 .108.238.436.422.639.271.34.621.766.797.975.001.004 0 .006.001.008.038.043.163.187.311.359.104.127.209.256.324.383.19.205.381.412.446.468.072.067.226.067.382.071.299-.004.868-.047.897-.305v-.006c-.014-.068-.039-.146-.09-.24m-3.031 3.932-.012.013s.484-.007.574-.136c.039-.032.012-.373-.017-.672l-.014.019s.066-.547-.504-.326c-.264.158-.559.379-.719.504-.097.135-.148.266-.183.389 0 .215.531.222.875.209m4.258-2.051c-.332.443-.959.101-1.262-.051-.098-.051-.346-.133-.639-.232l-1.724-.551c-.219-.078-.418-.149-.516-.188-.287-.058-.449-.029-.449.088 0 .147.193.381.193.582 0 .174-.031.383.063.383.097 0 .673-.088.863.029.191.116.064.436.191.639.094.176.287.703.319.879 0 .059.064.203.099.35.031.173.096.377.096.554 0 .293.316 1.459.539 1.606.197.146-.189.728-.316.879-.065.086-.194.203-.319.289-.064.058-.131.117-.193.117-.121.029-1.215-.418-1.522-.535v-.012s-.384-.166-.498-.492c-.015-.145.045-.313.442-.307.533.014.511-.043.672-.031.224-.039.517-.156.496-.473v-.025c-.043-.416-.121-.934-.102-1.016.029-.117-.223.235-.351.323-.163.115-.448.058-.702.027-.064 0-.097-.027-.127-.027-.066 0-.13-.03-.16-.03-.043-.01-.072-.01-.103-.013-.215-.008-.19.154-.051.507.139.354-.209.495-.473.67-.263.178-.468-.062-.468-.062v-.012c-.088-.074-.17-.18-.184-.303-.031-.203-.031-1.109.096-1.808.095-.674.318-1.403.287-1.549-.012-.074.045-.15.117-.219l-.002-.013s.018-.008.037-.018c.006-.004.014-.012.024-.018.066-.062.132-.246-.186-.718-.051-.063-.148-.172-.277-.27-.352-.232-.705-.232-.832-.322-.129-.084-.416-.291-.416-.496 0-.174-.065-.467.127-.614.16-.175.353-.261.513-.291.129-.027.192-.148.065-.293-.1-.089-.252-.218-.399-.359 0 0-.666-.527-.957-.615-.283-.088-.324-.944.004-1.055.078-.056.219-.035.399.018.709.324 1.226 1.076 1.468 1.482.121.18.272.391.368.52.261.345.541.652.66.771l.002-.002s.291.176.482.039c.195-.14-.316-.547-.596-.902-.259-.328-.689-1.18-1.037-1.58-.289-.268-.683-.463-.683-.711 0-.233.381-.381.638-.262.225.117.672.555.77.586.127.026.318.086.381 0 0-.031.095-.146.226-.297.03-.056.094-.113.16-.172.286-.322.702-.701 1.051-.759.096-.022.172-.032.237-.036h.003c.014-.005.028 0 .043 0h.057c.022 0 .045 0 .068.006.041.008.077.024.11.037.346.137.781.553.972.934.252.494 2.221 3.156 2.221 3.156.748.961.319 1.823-.015 2.268" transform="matrix(2.71753206 0 0 -2.71753206 261.0011269908 28.3371911636)"/><path d="m617.52 562.23c0-6.178 5.01-11.19 11.186-11.19 6.18 0 11.187 5.012 11.187 11.19 0 6.18-5.007 11.19-11.187 11.19-6.176 0-11.186-5.01-11.186-11.19" fill="url(#a)" transform="matrix(2.71753206 0 0 -2.71753206 -1678.1618127237 1558.29687081536)"/><path d="m0 0c.465.348 3.43 4.547 3.93 5.049.463.461 1.158.887 2.006.887h7.168c-.176.421-.375.834-.598 1.23-2.606-.012-8.25-.039-8.852-.039-.847 0-1.922-.459-2.539-1.231-.58-.656-2.969-3.855-3.662-4.701-.385-.424-.928-.806-1.389-.806h-4.419c.048-.422.121-.834.214-1.237h6.254c.848 0 1.426.463 1.887.848m9.982 3.621h3.788c-.071.408-.163.805-.276 1.193h-5.793c-.847 0-1.928-.498-2.545-1.23-.576-.693-2.965-3.854-3.658-4.705-.383-.459-.926-.805-1.389-.805h-7.943c.15-.437.32-.859.52-1.273h9.474c.848 0 1.426.506 1.887.851.465.342 3.43 4.582 3.93 5.045.464.5 1.158.924 2.005.924m1.622-2.35c.121.032 1.503.012 2.326.004.006.135.011.272.011.409 0 .289-.013.574-.037.859h-3.963c-.343 0-.537-.193-.73-.383 0 0-3.815-4.82-3.969-5.012-.154-.232.037-.271.194-.308.134-.031 5.351-.01 7.406 0 .174.361.326.734.463 1.119h-3.748c-.309 0-.309.152-.229.305.039.117.459.773.692.814.21.031 2.632.004 3.603 0 .016.049.029.098.043.147.076.343.137.691.184 1.046h-2.672c-.309 0-.274.118-.233.231.076.113.498.73.659.769" fill="#fff" transform="matrix(2.71753206 0 0 -2.71753206 22.8909678936 34.9951447106)"/></svg>