<svg width="256" height="136" viewBox="0 0 256 136" fill="none" xmlns="http://www.w3.org/2000/svg">
<g clip-path="url(#clip0_106_408)">
<path d="M61.7651 2.35759C58.5076 11.393 56.8121 16.9522 55.8909 21.1518C55.3749 23.2643 55.1259 25.4336 55.15 27.6085C55.2902 32.5448 58.2472 33.9648 60.7838 34.5073C63.3204 35.0498 66.1907 35.0364 69.6284 34.8891C73.0662 34.7417 76.8777 34.3332 80.7827 33.8576C86.3231 33.1878 97.2437 31.433 102.551 30.6025C94.6337 31.6674 85.5621 32.7659 77.9257 32.8664C74.9071 32.9532 71.8868 32.7694 68.9008 32.3171C66.2308 31.8349 63.8144 31.1584 61.7584 29.3165C60.4333 28.0575 59.4579 26.474 58.9281 24.7217C58.4332 23.066 58.1813 21.3466 58.1805 19.618C58.1338 15.2309 59.1951 10.6027 60.37 6.57727C60.7705 5.2377 61.2511 3.80433 61.7784 2.35759C61.7784 2.3241 61.9587 1.84855 61.972 1.81506L61.7651 2.35759Z" fill="#A2D39B"/>
<path d="M58.1807 19.618C58.1805 21.3472 58.4347 23.067 58.935 24.7217C59.4597 26.4746 60.4333 28.0589 61.7586 29.3165C63.8146 31.1584 66.2176 31.8349 68.901 32.3171C71.887 32.7694 74.9073 32.9532 77.9259 32.8664C85.5623 32.7659 94.6139 31.6674 102.551 30.6025C103.092 30.5355 103.632 30.4551 104.16 30.3814C104.033 29.8121 103.893 29.2361 103.712 28.6534C103.126 26.6744 102.279 24.7824 101.196 23.0272C96.8567 23.6166 92.3576 24.1725 87.8452 24.7552C77.9993 26.0948 69.108 26.289 66.0908 23.2281C63.2472 20.3346 65.243 10.7433 67.2523 3.71725C65.7618 2.51718 64.0682 1.59606 62.2526 0.997925C62.2058 1.15198 62.1391 1.30604 62.079 1.47349C61.5316 2.95371 60.9175 4.69515 60.3501 6.57725C59.1753 10.596 58.114 15.2309 58.1607 19.618" fill="#38B54A"/>
<path d="M25.2722 89.9522C28.0825 82.886 32.8085 71.6738 37.855 64.2928C39.427 61.862 41.3124 59.6504 43.4621 57.7155C44.5789 56.7268 45.8948 55.9912 47.3204 55.5588C48.1879 55.3055 49.0869 55.177 49.9905 55.177C52.2738 55.2267 54.5024 55.8881 56.4453 57.0926C58.5183 58.2786 60.4585 59.6842 62.2327 61.2854C65.804 64.4401 72.586 73.3416 72.586 73.3416C72.586 73.3416 65.8307 64.0249 61.7588 59.6177C59.8084 57.3777 57.6834 55.297 55.404 53.3953C54.3592 52.5818 53.242 51.8666 52.0664 51.2587C50.8215 50.6326 49.4535 50.2918 48.0613 50.2607C47.5164 50.256 46.9732 50.3235 46.4459 50.4617C44.4434 51.0377 43.5222 52.1094 42.5009 53.2078C40.8187 55.177 39.2634 58.0571 37.6013 61.2452C33.0021 70.0529 28.0091 82.8123 25.2656 89.9657L25.2722 89.9522Z" fill="#E59CBE"/>
<path d="M66.2639 74.7882C68.4338 74.6525 70.568 74.1686 72.5853 73.3549C72.5853 73.3549 65.8033 64.44 62.232 61.2988C60.4578 59.6976 58.5176 58.2919 56.4446 57.1059C54.5013 55.9023 52.273 55.241 49.9898 55.1903C49.0862 55.1903 48.1873 55.3188 47.3197 55.5721C45.8941 56.0046 44.5782 56.7402 43.4614 57.7288C41.3133 59.6628 39.428 61.8719 37.8543 64.2994C32.8078 71.6671 28.0818 82.8994 25.2715 89.9656C27.7746 90.7362 30.3939 91.056 33.0081 90.91C33.2551 90.2804 43.7418 63.1876 50.7908 62.0691C56.2244 61.2117 64.6952 72.5579 66.2839 74.795" fill="#D92F8A"/>
<path d="M81.1898 36.4899C88.8553 34.5836 96.6132 33.0723 104.433 31.9622C100.749 32.4042 86.9304 34.5073 74.4678 36.9855C62.0053 39.4638 55.8574 42.0357 58.7144 50.0464C61.3845 57.5145 72.492 70.6758 73.9739 72.4038C72.9526 71.0643 67.4589 63.6497 65.5765 59.1621C58.9748 45.1368 69.4682 39.4638 81.2232 36.4899" fill="#84B9E3"/>
<path d="M104.386 38.1242C104.774 36.0925 104.792 34.0071 104.439 31.9689H104.432C96.6245 33.0837 88.8781 34.5949 81.2227 36.4966C69.4677 39.4705 58.9743 45.1435 65.5761 59.1689C67.4585 63.6564 72.9522 71.0576 73.9735 72.4105L74.1404 72.6115C76.2776 71.2238 78.0976 69.3976 79.4805 67.2532L79.6007 67.0657C79.8476 67.3738 70.6693 55.1636 71.5904 49.8053C72.5917 43.8978 96.589 39.3834 104.419 38.1041" fill="#4192D3"/>
<path d="M17.1152 5.365L17.2754 5.56591C19.3113 8.13789 22.7424 12.324 27.148 17.2671C29.5794 20.0516 32.2073 22.6571 35.0113 25.0634C36.2068 26.0669 37.502 26.9444 38.8763 27.6822C42.2139 29.4103 45.2177 29.417 48.3484 26.8718C50.2691 25.1373 51.8415 23.0503 52.9809 20.7232C54.9265 16.8285 56.5929 12.7995 57.9673 8.66702C58.8284 6.20221 59.6494 3.77087 60.4238 1.57397C59.3891 4.11246 58.3077 6.81171 57.0862 9.45066C55.2171 13.3756 53.0277 17.1867 49.7435 20.04C47.4627 22.0808 44.6042 23.3569 41.5664 23.6903C41.286 23.6903 40.999 23.6903 40.7186 23.6903C37.7548 23.6903 35.2116 22.4311 32.7484 20.837C30.1153 19.0353 27.6689 16.9732 25.4458 14.6817C22.7757 12.0025 19.9054 8.69379 17.2821 5.5458L17.2086 5.46543L17.1152 5.365Z" fill="#E9EC9A"/>
<path d="M32.7143 20.8638C35.1774 22.4579 37.7207 23.6836 40.6845 23.7171C40.9648 23.7171 41.2519 23.7171 41.5322 23.7171C44.5684 23.3734 47.4222 22.088 49.696 20.04C52.9735 17.1867 55.1563 13.3422 57.0387 9.444C58.2869 6.81844 59.4284 4.1393 60.3763 1.57402C60.5431 1.13866 60.5899 0.998008 60.7367 0.576043L60.196 0.448782C57.7365 -0.123132 55.1815 -0.143732 52.7131 0.388483C51.3381 3.73741 46.819 16.0012 40.6377 16.9255C35.2976 17.7225 28.3087 9.45071 21.2797 1.12527C19.2686 1.63008 17.3646 2.49453 15.6592 3.67715C15.766 3.79102 15.7059 3.73745 15.8127 3.85801C18.8499 7.58202 22.1141 11.4065 25.3849 14.7018C27.5969 16.9962 30.0321 19.0628 32.6542 20.8705" fill="#D6DE24"/>
<path d="M33.7496 30.482C32.7303 28.2696 31.515 26.1535 30.1184 24.1592C28.8434 22.257 27.495 20.4084 26.1132 18.5933C23.1294 14.6817 19.9787 10.9309 16.7079 7.31408C15.9469 6.47685 15.1726 5.62622 14.3916 4.80238L14.3449 4.75549C17.6825 8.45941 23.2763 14.9161 27.2947 23.5564C28.4295 25.9877 31.38 33.0539 26.1933 37.6219C20.8532 42.3774 10.1729 43.8978 0.160156 45.3713C4.87284 44.8489 9.58551 44.2795 14.2781 43.5897C17.6558 43.094 21.0267 42.5448 24.3443 41.7813C27.1078 41.1115 30.1784 40.3747 32.4146 38.5462C33.626 37.6127 34.4184 36.2346 34.6174 34.715C34.6808 33.253 34.3875 31.7977 33.763 30.4753" fill="#FDC689"/>
<path d="M9.64523 10.7366C14.8119 16.7111 16.9546 18.6535 20.7594 26.3426C23.7165 32.3037 20.4724 34.0385 16.4406 35.6661C13.0296 37.0592 0.673787 39.015 0.673787 39.015C0.0180617 41.0567 -0.160099 43.2225 0.153123 45.3445C10.1659 43.8709 20.8462 42.3505 26.1864 37.595C31.373 32.9936 28.4225 25.9274 27.2878 23.5295C23.2827 14.8893 17.6955 8.43257 14.3379 4.72865L14.2912 4.68176C13.2126 5.57303 12.2524 6.59949 11.4342 7.73598C10.6793 8.63441 10.071 9.64716 9.63189 10.7366" fill="#F7941F"/>
<path d="M33.5223 47.7356C32.0204 46.2152 29.9177 45.532 27.8617 45.1837C25.8516 44.907 23.8221 44.7972 21.794 44.8555C14.6382 44.9761 7.50914 45.9272 0.43345 46.8649H0.386719C5.14887 46.213 9.94595 45.8506 14.7517 45.7798C18.5899 45.7798 21.3 46.1348 23.4828 46.8716L23.9434 47.0323L24.1904 47.1194L24.3105 47.1663C29.5572 49.1756 30.9857 53.4689 31.0591 58.6665C31.0591 63.6899 29.7241 69.9926 28.0019 76.3488C26.7537 80.9771 25.2918 85.5852 23.9568 89.4833C25.7524 84.748 27.6348 80.0393 29.3436 75.2772C31.2197 70.231 32.8285 65.0888 34.1631 59.8721C34.7665 57.6025 35.1202 55.2733 35.2178 52.9264C35.2178 51.0644 34.8707 49.0886 33.5356 47.7088" fill="#F69679"/>
<path d="M31.0455 58.6934C30.9654 53.5025 29.5436 49.2293 24.2969 47.1998L24.1767 47.1529L23.9297 47.0658L23.4692 46.9051C21.2864 46.1683 18.5763 45.8201 14.738 45.8134C9.93231 45.8842 5.13521 46.2465 0.373047 46.8984C0.746504 49.5001 1.72275 51.9776 3.22337 54.1321C7.04402 53.6547 10.8882 53.3908 14.738 53.3417C25.3249 53.2949 25.6052 56.3625 25.0445 64.7281C24.5839 71.6604 19.918 83.7835 18.6964 86.3488C19.3156 86.9286 19.9858 87.451 20.699 87.9094C21.7215 88.5362 22.7957 89.0739 23.9097 89.5169C25.2448 85.6187 26.7066 81.0039 27.9549 76.3824C29.657 70.0261 30.9921 63.7235 31.0121 58.6934" fill="#ED1C24"/>
<path d="M54.6893 88.3581C55.23 87.9093 56.5049 87.7285 57.7132 87.7285C60.5034 87.7285 61.558 88.338 61.558 88.338L62.3724 85.5651C62.3724 85.5651 60.2631 84.4666 56.011 84.8484C52.0059 85.2101 50.791 86.2684 50.791 86.2684V102.598H54.6826V95.3105H60.3031V92.2897H54.6826V88.3581H54.6893Z" fill="#4192D3"/>
<path d="M100.662 99.6375C100.806 99.6528 100.951 99.6528 101.096 99.6375L101.883 102.598C101.188 102.815 100.462 102.919 99.7336 102.906C98.185 102.906 95.8887 102.236 95.8887 98.2175V85.3308C96.4864 85.1959 97.0989 85.1396 97.711 85.1634C98.3324 85.1003 98.96 85.1571 99.5601 85.3308V98.0567C99.5601 99.2824 99.9139 99.6375 100.662 99.6375Z" fill="#4192D3"/>
<path d="M126.361 96.1879V102.504H122.697V95.4846C122.721 94.879 122.678 94.2725 122.57 93.6762C122.369 92.6849 121.795 92.0687 120.454 92.0687C119.853 92.0715 119.258 92.1851 118.698 92.4036V102.504H115.013V90.3674C116.873 89.6726 118.837 89.2967 120.821 89.2556C123.885 89.2556 125.68 91.064 126.161 93.5556C126.291 94.4177 126.349 95.2893 126.335 96.1611L126.361 96.1879Z" fill="#4192D3"/>
<path d="M216.783 96.1879V102.504H213.112V95.4846C213.135 94.8793 213.094 94.2732 212.992 93.6762C212.792 92.6849 212.204 92.0687 210.876 92.0687C210.275 92.0703 209.68 92.1839 209.12 92.4036V102.504H205.429V90.3674C207.288 89.6713 209.252 89.2954 211.236 89.2556C214.287 89.2556 216.096 91.064 216.576 93.5556C216.716 94.4168 216.778 95.2888 216.763 96.1611L216.783 96.1879Z" fill="#4192D3"/>
<path fill-rule="evenodd" clip-rule="evenodd" d="M110.154 102.504H112.944L112.917 89.9723C111.51 89.5657 110.056 89.3406 108.592 89.3025C104.787 89.3025 100.809 92.0821 101.917 97.5878C102.511 100.508 104.68 102.665 106.99 102.665C108.024 102.693 109.028 102.318 109.793 101.62C109.875 101.929 109.996 102.226 110.154 102.504ZM105.548 97.2596C105.007 94.0379 106.683 92.0285 108.258 92.0285H108.271C108.438 92.0285 108.621 92.0455 108.793 92.0614C108.946 92.0755 109.09 92.0888 109.206 92.0888V99.2756C108.796 99.6512 108.259 99.857 107.704 99.8516C106.983 99.8516 105.875 99.2153 105.548 97.2596Z" fill="#4192D3"/>
<path fill-rule="evenodd" clip-rule="evenodd" d="M164.202 102.504H161.412C161.255 102.227 161.138 101.93 161.065 101.62C160.293 102.308 159.293 102.681 158.261 102.665C155.938 102.665 153.769 100.508 153.174 97.5878C152.066 92.0821 156.038 89.3025 159.85 89.3025C161.316 89.3529 162.769 89.5915 164.175 90.0125L164.202 102.504ZM159.509 92.0285C157.934 92.0285 156.252 94.0379 156.806 97.2596C157.119 99.2153 158.241 99.8516 158.955 99.8516C159.512 99.8548 160.05 99.6494 160.464 99.2756V92.0888C160.344 92.0888 160.201 92.0755 160.05 92.0613C159.88 92.0454 159.699 92.0285 159.529 92.0285H159.509Z" fill="#4192D3"/>
<path fill-rule="evenodd" clip-rule="evenodd" d="M226.775 102.504H229.572L229.545 89.9723C228.137 89.5673 226.684 89.3423 225.22 89.3025C221.408 89.3025 217.43 92.0821 218.545 97.5878C219.132 100.508 221.301 102.665 223.624 102.665C224.655 102.685 225.655 102.311 226.421 101.62C226.506 101.927 226.624 102.224 226.775 102.504ZM222.183 97.2595C221.608 94.0379 223.277 92.0285 224.853 92.0285H224.899C225.07 92.0285 225.256 92.0456 225.429 92.0616C225.582 92.0756 225.725 92.0888 225.841 92.0888V99.2756C225.432 99.6491 224.898 99.8547 224.345 99.8516C223.618 99.8516 222.51 99.2153 222.183 97.2595Z" fill="#4192D3"/>
<path d="M185.283 96.2013V102.504H181.605V95.5114C181.629 94.8959 181.597 94.2794 181.512 93.6695C181.311 92.7251 180.744 92.062 179.362 92.062C178.617 92.0756 177.884 92.2588 177.219 92.5979C177.495 93.4985 177.634 94.4354 177.633 95.3774V102.504H173.922V95.4846C173.941 94.861 173.897 94.237 173.788 93.6226C173.595 92.6514 173.007 92.062 171.706 92.062C171.105 92.0656 170.509 92.1814 169.95 92.4036V102.504H166.265V90.3675C168.129 89.6787 170.094 89.3075 172.08 89.269C173.269 89.2272 174.44 89.5726 175.417 90.2536C176.756 89.6052 178.223 89.2686 179.709 89.269C180.973 89.1917 182.22 89.5893 183.207 90.3843C184.194 91.1792 184.851 92.3146 185.049 93.5691C185.197 94.4338 185.26 95.3109 185.236 96.1879L185.283 96.2013Z" fill="#4192D3"/>
<path fill-rule="evenodd" clip-rule="evenodd" d="M187.059 89.8584C188.474 89.5023 189.926 89.3157 191.384 89.3025L191.418 89.3293C195.122 89.3293 199.228 91.8879 198.013 97.9762C197.479 100.615 195.65 102.665 192.806 102.665C192.103 102.622 191.41 102.484 190.743 102.256V108.532H187.059V89.8584ZM190.71 99.7779C191.07 100.039 193.881 100.809 194.408 97.2595C194.902 94.0312 193.267 92.0218 191.691 92.0218C191.363 92.0223 191.035 92.0447 190.71 92.0888V99.7779Z" fill="#4192D3"/>
<path d="M94.6007 98.3514C94.2603 96.697 93.0387 95.6722 91.697 94.9153C91.5007 94.8046 91.3122 94.7003 91.1331 94.6012C90.0884 94.0231 89.3631 93.6217 89.2606 93.1471C89.2277 92.9708 89.2354 92.7893 89.283 92.6164C89.3307 92.4435 89.417 92.2838 89.5354 92.1494C89.6539 92.0151 89.8014 91.9096 89.9666 91.8411C90.1318 91.7726 90.3104 91.7428 90.4888 91.754C91.4834 91.754 92.1643 92.0018 93.4593 92.7252V89.9991C92.3864 89.533 91.2307 89.2893 90.0616 89.2825C87.6051 89.2825 85.5625 90.622 86.1032 93.3414C86.2408 93.9928 86.5165 94.6069 86.9116 95.142C87.3066 95.6771 87.8118 96.1206 88.3928 96.4425C88.5811 96.562 88.7729 96.6796 88.9633 96.7965C90.0214 97.4456 91.038 98.0693 91.1964 98.847C91.3366 99.557 90.916 100.508 89.3006 100.508C88.2482 100.383 87.2375 100.021 86.3435 99.4498V102.283C87.4097 102.688 88.5411 102.892 89.6811 102.886C92.9252 102.886 95.2682 101.513 94.6274 98.3514H94.6007Z" fill="#4192D3"/>
<path d="M61.6045 90.5752C63.6029 89.8197 65.7236 89.4427 67.8591 89.4633L67.8858 89.47H68.0794V92.2295C67.8962 92.1998 67.711 92.1841 67.5254 92.1827C66.7788 92.1806 66.0363 92.2912 65.3226 92.5108V102.504H61.6445L61.6045 90.5752Z" fill="#4192D3"/>
<path d="M73.1195 102.504H69.5215V89.5035C70.1096 89.3809 70.7102 89.3291 71.3105 89.3494C71.9178 89.2884 72.5311 89.3406 73.1195 89.5035V102.504Z" fill="#4192D3"/>
<path d="M203.273 102.504H199.675V89.7245C200.246 89.512 200.856 89.423 201.464 89.4633C202.952 89.4633 203.273 89.7245 203.273 89.7245V102.504Z" fill="#4192D3"/>
<path d="M149.23 99.8717C150.116 99.8298 150.991 99.6583 151.827 99.3627L153.269 102.223C151.94 102.687 150.55 102.948 149.144 103C144.738 103 141.721 100.475 141.721 94.1049C141.721 87.8692 145.012 85.2235 149.064 85.2235C151.226 85.2235 152.575 85.7928 153.556 86.7774L151.687 89.2556C150.973 88.6003 150.03 88.2558 149.064 88.2978C146.467 88.2978 145.726 91.0707 145.726 94.1049C145.726 97.3265 146.674 99.8717 149.23 99.8717Z" fill="#4192D3"/>
<path fill-rule="evenodd" clip-rule="evenodd" d="M137.414 85.1834C136.804 85.1606 136.194 85.2169 135.599 85.3508V89.3695C135.457 89.3695 135.296 89.3428 135.13 89.3153C134.953 89.286 134.77 89.2557 134.597 89.2557C130.839 89.2557 126.934 91.6736 128.156 97.715C128.757 100.669 130.906 102.812 133.496 102.812C134.475 102.758 135.412 102.389 136.166 101.761L136.52 102.477H139.33V85.3508C138.711 85.1826 138.067 85.1259 137.428 85.1834H137.414ZM131.807 97.3735C132.146 99.3139 133.193 99.9864 133.947 99.9923C134.565 99.9845 135.159 99.7457 135.612 99.3225V92.1223C135.227 91.9692 134.812 91.9065 134.399 91.939C133.986 91.9715 133.586 92.0984 133.229 92.3099C131.947 93.261 131.467 95.4244 131.807 97.3735Z" fill="#4192D3"/>
<path fill-rule="evenodd" clip-rule="evenodd" d="M83.9267 97.4003C83.2925 97.4606 82.2846 97.4606 81.5637 97.4606H78.0258C77.9875 97.82 78.0275 98.1835 78.1432 98.5259C78.2589 98.8682 78.4475 99.1812 78.6958 99.4431C78.9441 99.7051 79.2463 99.9096 79.5813 100.043C79.9163 100.176 80.2761 100.234 80.6358 100.213C82.0768 100.295 82.7644 99.9847 84.0854 99.3878L84.3339 99.2757V101.975C83.0849 102.583 81.717 102.906 80.3288 102.919C76.8644 102.846 74.6816 100.997 74.5547 96.0875V96.0272C74.5481 91.2918 76.9111 89.3294 80.1419 89.2825H80.1752C82.7986 89.3494 84.9146 90.5417 84.9814 94.9489C84.9819 95.7587 84.9014 96.5664 84.7411 97.3601L83.9267 97.4003ZM80.3621 91.8009H80.3488C77.859 91.9415 78.1527 95.2502 78.1527 95.2502H82.1578V94.48C82.1044 92.839 81.3167 91.7272 80.3621 91.8009Z" fill="#4192D3"/>
<path d="M246.661 88.0256C246.87 87.7117 246.982 87.3427 246.982 86.9651C246.982 86.4589 246.781 85.9733 246.425 85.6153C246.068 85.2573 245.584 85.0563 245.079 85.0563C244.703 85.0563 244.335 85.1682 244.022 85.3779C243.71 85.5877 243.466 85.8858 243.322 86.2346C243.178 86.5834 243.14 86.9673 243.214 87.3375C243.287 87.7078 243.468 88.048 243.734 88.3149C244 88.5819 244.339 88.7637 244.708 88.8373C245.077 88.911 245.46 88.8732 245.807 88.7287C246.155 88.5842 246.452 88.3396 246.661 88.0256Z" fill="#4192D3"/>
<path d="M256 92.3768C256.035 91.8953 255.947 91.4127 255.745 90.9745C255.543 90.5363 255.234 90.1569 254.845 89.8718C254.138 89.4737 253.332 89.2856 252.522 89.3293C252.208 89.3293 251.908 89.3293 251.628 89.3695C250.407 89.4525 249.203 89.7026 248.05 90.113V98.8202H250.873V92.2831C251.313 92.1876 251.759 92.1316 252.209 92.1156C252.461 92.0906 252.714 92.1494 252.929 92.2831C253.036 92.3634 253.09 92.484 253.103 92.7854C253.085 93.1736 253.011 93.5572 252.883 93.924C252.682 94.5938 252.422 95.3373 252.162 96.0339V98.8202H254.118C254.118 98.7989 254.238 98.4762 254.415 98.0022V98.0011L254.416 97.9999C254.851 96.833 255.627 94.7525 255.793 93.991C255.928 93.4634 256 92.9215 256.007 92.3768H256Z" fill="#4192D3"/>
<path d="M253.583 102.497H236.568V100.019H253.583V102.497Z" fill="#4192D3"/>
<path d="M246.615 90.1732C246.11 90.0826 245.598 90.0489 245.086 90.0727C244.57 90.0705 244.055 90.104 243.544 90.1732V98.8268H246.615V90.1732Z" fill="#4192D3"/>
<path d="M237.269 93.9307C237.483 94.6005 237.737 95.3708 237.997 96.0406L238.01 98.8336H236.061C236.059 98.8275 236.047 98.7969 236.028 98.7451C235.808 98.1698 234.593 94.9877 234.379 94.0044C234.247 93.4762 234.176 92.9347 234.165 92.3902C234.128 91.9094 234.215 91.4271 234.417 90.9896C234.62 90.5521 234.931 90.1741 235.32 89.8919C236.029 89.4895 236.837 89.299 237.65 89.3427C237.806 89.3427 237.96 89.3531 238.112 89.3633C238.259 89.3732 238.403 89.3829 238.544 89.3829C239.762 89.4676 240.963 89.7153 242.116 90.1197V98.8269H239.285V92.2898C238.846 92.1928 238.4 92.1368 237.95 92.1223C237.696 92.0997 237.442 92.1583 237.223 92.2898C237.129 92.3701 237.056 92.4907 237.056 92.7921C237.078 93.1793 237.15 93.562 237.269 93.9307Z" fill="#4192D3"/>
<path d="M179.309 113.341C178.821 113.341 178.581 113.703 178.641 114.326H178.648C178.832 116.241 179.366 119.302 179.674 121.07L179.675 121.077C179.768 121.611 179.841 122.027 179.876 122.256C180.044 123.098 180.111 123.957 180.076 124.815C179.983 125.27 180.15 125.645 180.651 125.645C181.151 125.645 181.405 125.411 181.565 124.868C181.804 123.882 182.255 122.96 182.886 122.167C183.516 121.373 184.312 120.727 185.216 120.273C185.85 119.992 186.171 120.019 186.304 120.561C186.785 122.591 186.077 124.728 185.09 125.598C184.906 125.787 184.669 125.914 184.411 125.962C184.153 126.01 183.886 125.977 183.648 125.866C183.381 125.746 183.22 126 183.381 126.295C183.541 126.59 183.808 126.844 184.515 126.744C185.971 126.543 186.845 125.29 187.412 123.951C188.127 122.256 188.047 120.2 187.286 119.47C186.781 119.161 186.193 119.018 185.603 119.061C183.621 119.383 182.172 120.99 181.198 122.671C180.694 119.861 180.366 117.023 180.217 114.172C180.203 113.942 180.1 113.727 179.931 113.572C179.761 113.416 179.538 113.334 179.309 113.341Z" fill="#4192D3"/>
<path d="M145.612 114.165C145.754 114.177 145.89 114.221 146.013 114.292C146.135 114.364 146.24 114.462 146.32 114.579C146.4 114.696 146.452 114.83 146.474 114.971C146.496 115.111 146.487 115.254 146.447 115.391C145.922 118.147 145.789 120.963 146.053 123.756C147.461 120.582 148.323 119.342 149.471 119.476C150.752 119.63 151.714 122.423 151.126 127.641C151.073 128.097 150.859 128.351 150.459 128.351C150.058 128.351 149.885 128.17 149.898 127.621L149.9 127.563C149.985 124.92 150.035 123.402 149.558 121.7C149.331 120.89 148.89 120.957 148.469 121.513C147.698 122.669 147.052 123.903 146.54 125.196C146.491 125.377 146.381 125.535 146.229 125.644C146.077 125.753 145.892 125.805 145.706 125.793C145.365 125.793 145.098 125.585 144.978 124.875C144.666 121.659 144.666 118.419 144.978 115.203C145.058 114.533 145.159 114.165 145.586 114.165H145.612Z" fill="#4192D3"/>
<path d="M134.752 115.819C134.638 116.315 135.179 116.489 135.606 116.442C136.034 116.395 136.387 116.275 136.427 116.02C136.467 115.766 136.114 115.397 135.606 115.35C135.099 115.304 134.812 115.551 134.752 115.806V115.819Z" fill="#4192D3"/>
<path d="M127.13 118.391C126.623 118.391 126.516 118.706 126.576 119.255C126.594 119.417 126.644 119.822 126.708 120.343C126.862 121.594 127.099 123.512 127.17 124.339C127.164 124.958 127.294 125.571 127.55 126.134C127.628 126.261 127.734 126.367 127.861 126.444C127.987 126.521 128.13 126.566 128.278 126.576C128.645 126.616 128.899 126.489 128.946 125.906C129.069 124.608 129.354 123.33 129.793 122.102C130.287 120.622 130.828 119.918 131.202 119.932C131.576 119.945 131.596 120.253 131.515 120.602C131.469 120.836 131.455 121.004 131.823 120.997C132.19 120.99 132.49 120.742 132.744 120.059C133.051 119.229 132.984 118.324 132.196 118.144C131.74 118.079 131.276 118.154 130.863 118.36C130.451 118.565 130.11 118.892 129.887 119.296C129.133 120.578 128.628 121.991 128.398 123.462C128.284 122.771 128.232 121.978 128.183 121.232C128.124 120.323 128.069 119.484 127.911 118.987C127.797 118.639 127.644 118.318 127.143 118.318L127.13 118.391Z" fill="#4192D3"/>
<path d="M110.074 122.035C109.406 124.111 109.62 126.429 111.556 127.092C113.645 127.802 115.514 126.288 116.228 124.352C117.163 121.861 116.128 119.965 114.526 119.583C114.452 119.56 114.374 119.553 114.297 119.562C114.22 119.571 114.145 119.597 114.079 119.637C114.012 119.676 113.954 119.73 113.91 119.793C113.865 119.857 113.834 119.929 113.819 120.005C113.772 120.206 113.919 120.414 114.299 120.561C115 120.823 115.701 121.901 115.047 123.85C114.393 125.799 112.957 126.415 112.07 126.074C111.182 125.732 110.942 124.218 111.402 122.644C111.983 120.756 112.737 119.965 113.478 119.691C114.086 119.483 114.272 118.706 113.712 118.572C113.246 118.49 112.767 118.593 112.377 118.86C111.226 119.586 110.39 120.719 110.034 122.035H110.074Z" fill="#4192D3"/>
<path d="M102.003 119.168C102.107 119.178 102.206 119.213 102.294 119.268C102.382 119.323 102.456 119.399 102.51 119.488C102.563 119.577 102.596 119.677 102.604 119.781C102.612 119.885 102.596 119.989 102.558 120.086C102.376 121.609 102.499 123.152 102.918 124.627C103.576 123.087 104.343 121.596 105.214 120.166C105.688 119.496 106.229 118.827 106.97 118.954C107.711 119.081 108.018 119.738 108.145 120.508C108.271 121.278 108.498 125.076 108.532 126.027C108.51 126.248 108.539 126.471 108.617 126.678C108.694 126.886 108.818 127.073 108.979 127.226C109.03 127.279 109.068 127.343 109.092 127.413C109.115 127.483 109.122 127.557 109.113 127.63C109.104 127.703 109.079 127.773 109.04 127.835C109.001 127.898 108.948 127.95 108.886 127.989C108.678 128.094 108.436 128.113 108.215 128.04C107.993 127.967 107.81 127.809 107.704 127.601C107.47 127.146 107.35 126.64 107.357 126.127C107.327 124.554 107.166 122.986 106.876 121.439C106.776 121.037 106.616 120.849 106.463 120.836C106.309 120.823 106.135 121.044 105.915 121.385C105.191 122.608 104.551 123.879 103.999 125.19C103.759 125.786 103.512 126.362 102.851 126.362C102.19 126.362 101.817 125.853 101.576 125.022C101.005 123.358 100.841 121.58 101.096 119.838C101.104 119.733 101.134 119.631 101.185 119.538C101.236 119.446 101.305 119.366 101.389 119.302C101.473 119.239 101.569 119.194 101.672 119.171C101.774 119.148 101.881 119.147 101.983 119.168H102.003Z" fill="#4192D3"/>
<path d="M117.163 120.086C117.023 119.523 116.889 118.813 117.73 118.746V118.753C118.111 118.726 118.618 118.867 118.691 119.818C118.913 121.224 119.31 122.597 119.873 123.904C120.233 124.701 120.407 124.828 120.988 123.991C121.839 122.741 122.534 121.391 123.057 119.972C123.211 119.336 123.404 118.76 124.018 118.82C124.492 118.86 124.606 119.389 124.572 120.019C124.492 121.057 124.492 122.075 124.492 122.698C124.552 123.872 124.674 125.041 124.859 126.201C124.999 127.045 124.339 126.958 124.065 126.871C123.791 126.784 123.684 126.482 123.624 126.154C123.418 124.861 123.284 123.557 123.224 122.249C123.182 122.349 123.138 122.452 123.093 122.559C122.465 124.048 121.581 126.141 120.454 125.953C118.678 125.652 117.677 122.182 117.163 120.086Z" fill="#4192D3"/>
<path d="M134.565 120.106C134.552 119.316 134.839 118.934 135.506 118.994L135.52 119.014C136.087 119.061 136.22 119.389 136.22 119.885C136.155 120.96 136.155 122.038 136.22 123.113C136.321 124.5 136.474 125.196 136.761 125.605C136.941 125.839 137.142 126.147 136.621 126.275C136.1 126.402 135.553 126.261 135.233 125.397C134.672 123.857 134.565 121.131 134.565 120.106Z" fill="#4192D3"/>
<path d="M137.669 118.519C137.669 117.634 138.37 116.884 139.932 116.824V116.837C141.274 116.784 142.081 117.253 142.442 117.922C142.802 118.592 142.508 119.175 142.081 119.262C141.991 119.292 141.894 119.303 141.799 119.293C141.704 119.282 141.612 119.252 141.53 119.203C141.448 119.154 141.377 119.088 141.322 119.009C141.268 118.93 141.231 118.841 141.214 118.746C141.157 118.591 141.069 118.449 140.957 118.328C140.844 118.208 140.708 118.111 140.557 118.044C140.407 117.977 140.244 117.942 140.079 117.939C139.914 117.937 139.751 117.967 139.598 118.03C139.117 118.177 138.991 118.719 139.338 119.235C139.973 120.003 140.67 120.717 141.42 121.372C142.842 122.685 143.556 123.542 143.556 124.607C143.556 126.409 141.621 127.815 140.633 128.184C139.518 128.592 138.717 128.371 138.35 127.983C137.99 127.644 137.776 127.178 137.756 126.683C137.746 126.607 137.763 126.529 137.805 126.465C137.846 126.4 137.909 126.351 137.982 126.328C138.055 126.305 138.134 126.309 138.205 126.338C138.276 126.367 138.334 126.421 138.37 126.489C138.485 126.732 138.663 126.94 138.884 127.092C139.106 127.244 139.364 127.334 139.631 127.353C140.8 127.353 142.088 125.987 142.188 124.855C142.278 123.837 141.424 123.068 140.203 121.969C140.066 121.846 139.924 121.719 139.778 121.586C138.337 120.273 137.669 119.403 137.669 118.519Z" fill="#4192D3"/>
<path d="M152.789 120.34C152.843 119.517 153.07 119.262 153.604 119.329C153.737 119.349 153.864 119.396 153.979 119.467C154.093 119.539 154.191 119.633 154.268 119.744C154.344 119.855 154.397 119.981 154.423 120.114C154.449 120.246 154.447 120.383 154.418 120.515C154.231 123.448 154.211 126.034 154.698 127.132C154.839 127.447 154.859 127.634 154.491 127.755C154.124 127.876 153.557 127.782 153.277 126.857C152.834 124.715 152.67 122.525 152.789 120.34Z" fill="#4192D3"/>
<path d="M154.697 115.96C154.03 115.746 153.743 115.96 153.676 116.288C153.609 116.616 153.916 116.958 154.344 117.058C154.771 117.159 155.278 117.139 155.385 116.844C155.492 116.549 155.178 116.114 154.717 115.96H154.697Z" fill="#4192D3"/>
<path d="M156.386 120.421C156.446 119.838 156.707 119.711 157.287 119.885L157.301 119.912L157.342 119.924C157.702 120.031 157.969 120.11 157.821 120.756C157.685 122.018 157.685 123.291 157.821 124.553C157.855 124.781 157.908 124.828 158.115 124.627C158.471 124.282 159.12 123.26 159.727 122.305C160.132 121.667 160.518 121.059 160.785 120.702C161.453 119.811 161.98 119.376 162.788 119.429C163.595 119.483 163.595 120.206 163.595 121.492C163.595 122.331 163.468 123.565 163.366 124.549V124.551C163.311 125.075 163.265 125.529 163.248 125.812C163.16 126.527 163.219 127.252 163.422 127.942C163.612 128.218 163.493 128.333 163.306 128.515L163.295 128.525C163.2 128.601 163.083 128.643 162.961 128.643C162.84 128.643 162.722 128.601 162.628 128.525C162.408 128.387 162.236 128.184 162.134 127.945C162.033 127.705 162.007 127.44 162.06 127.186C162.225 125.333 162.258 123.471 162.16 121.613C162.16 121.104 161.82 121.064 161.493 121.533C160.857 122.455 160.207 123.632 159.68 124.588C159.25 125.367 158.901 125.998 158.709 126.221C158.509 126.386 158.257 126.476 157.998 126.476C157.739 126.476 157.488 126.386 157.287 126.221C157.086 126.125 156.912 125.979 156.783 125.796C156.655 125.612 156.575 125.399 156.553 125.176C156.318 123.602 156.262 122.007 156.386 120.421Z" fill="#4192D3"/>
<path d="M170.712 119.617C170.712 119.993 170.581 120.016 170.258 120.073C170.12 120.097 169.949 120.127 169.738 120.193C168.042 120.736 165.552 122.578 166.467 124.594C167.301 126.429 168.469 125.645 169.511 124.413C169.855 124.045 170.176 123.656 170.472 123.247C170.585 123.043 170.636 122.81 170.619 122.578C170.619 122.156 170.705 121.801 171.186 121.814C171.667 121.827 172.081 121.968 172.127 122.564C172.144 122.776 172.171 123.085 172.207 123.491C172.273 124.228 172.367 125.282 172.474 126.643C172.501 126.975 172.551 127.391 172.608 127.86C172.911 130.369 173.4 134.422 171.426 135.618C170.458 136.201 169.511 135.98 169.284 135.685C169.057 135.391 169.17 135.076 169.537 135.176C170.238 135.357 170.872 135.089 171.246 134.118C171.68 132.855 171.794 131.504 171.58 130.186C171.442 128.679 171.176 126.224 171.031 124.887L170.986 124.473C170.105 125.813 169.224 126.536 167.822 126.536C167.444 126.547 167.068 126.481 166.717 126.342C166.365 126.203 166.046 125.993 165.777 125.726C165.509 125.46 165.297 125.141 165.155 124.79C165.013 124.438 164.944 124.062 164.951 123.683C164.951 122.216 166.954 119.744 168.823 119.329C170.212 119.021 170.712 119.403 170.712 119.604V119.617Z" fill="#4192D3"/>
<path d="M189.582 120.582C189.028 120.448 188.914 121.144 189.001 121.981C189.131 123.226 189.406 124.452 189.822 125.632C189.916 125.858 190.058 126.06 190.24 126.223C190.421 126.386 190.636 126.507 190.87 126.576C191.147 126.717 191.466 126.753 191.767 126.678C192.068 126.603 192.333 126.422 192.512 126.168C193.4 124.924 194.16 123.593 194.782 122.196C194.472 123.745 194.186 125.027 193.941 126.122L193.94 126.124C193.747 126.989 193.579 127.738 193.447 128.411C193.069 130.302 193.024 132.245 193.313 134.151C193.379 134.515 193.379 134.887 193.313 135.25C193.253 135.571 193.514 135.739 193.801 135.812C194.088 135.886 194.255 135.812 194.395 135.236C194.377 134.62 194.306 134.005 194.181 133.401C193.931 131.817 193.993 130.199 194.361 128.639C194.581 127.615 194.874 126.547 195.157 125.515C195.602 123.887 196.023 122.349 196.097 121.218C196.217 119.369 195.776 119.269 195.349 119.208C194.922 119.148 194.635 119.389 194.361 120.548C193.777 122.058 193.01 123.491 192.078 124.815C191.371 125.839 190.917 125.792 190.663 124.687C190.441 123.685 190.285 122.669 190.196 121.646C190.149 120.93 189.889 120.655 189.528 120.582H189.582Z" fill="#4192D3"/>
<path d="M203.319 120.836C203.366 119.932 203.326 119.349 202.739 119.208L202.745 119.188C202.285 119.081 202.078 119.443 202.078 120.206C202.049 122.133 202.152 124.06 202.385 125.973L202.414 126.1C202.551 126.708 202.561 126.752 203.106 126.991C203.687 127.246 204.054 126.991 204.147 126.677C204.763 124.483 205.806 122.434 207.218 120.648C207.565 120.206 207.692 120.213 207.792 120.695C208.049 121.927 208.199 124.997 208.28 126.667C208.303 127.122 208.32 127.472 208.333 127.654C208.393 128.505 208.606 128.612 209.234 128.753C209.861 128.894 210.028 128.646 209.901 127.875C209.703 126.822 209.569 125.757 209.501 124.687C209.45 123.841 209.415 122.832 209.385 121.969C209.36 121.24 209.338 120.614 209.314 120.28C209.274 119.738 209.053 119.53 208.052 119.262C207.351 119.068 207.017 119.175 206.757 119.45C205.514 121.123 204.443 122.918 203.56 124.808C203.397 123.49 203.317 122.164 203.319 120.836Z" fill="#4192D3"/>
<path d="M215.749 120.052C213.159 121.057 211.33 123.401 211.824 124.339C212.231 125.096 214.994 123.823 216.036 122.879V122.757C216.034 121.88 216.033 121.163 216.703 121.291C217.312 121.408 217.397 121.59 217.492 121.794C217.506 121.825 217.521 121.856 217.538 121.888C217.479 123.84 217.656 125.792 218.065 127.701C218.065 128.371 217.397 128.619 216.97 127.842C216.51 127.013 216.323 125.411 216.208 124.424L216.189 124.259C214.4 125.484 212.011 126.415 211.009 125.23C210.008 124.044 210.462 122.296 212.124 120.715C213.786 119.135 214.847 119.041 215.328 119.081C215.809 119.121 216.223 119.503 215.762 120.052H215.749Z" fill="#4192D3"/>
<path d="M219.213 115.049C219.166 113.997 219.6 113.783 220.128 113.884V113.904C220.682 114.018 220.795 114.299 220.795 115.967C220.802 116.465 220.814 116.963 220.83 117.461C222.319 117.243 224.06 117.074 225.735 116.945C225.937 117.088 226.121 117.257 226.282 117.447C226.516 117.728 226.129 117.949 225.468 118.043L225.252 118.073C224.522 118.176 223.223 118.357 222.217 118.599C221.777 118.704 221.334 118.794 220.889 118.87C220.996 120.988 221.187 123.1 221.463 125.203C221.776 124.982 222.531 124.486 222.531 125.471C222.531 126.938 221.73 127.976 221.102 127.976C220.595 127.976 220.375 127.266 220.248 126.435C220.1 125.415 219.776 121.926 219.53 119.058C219.373 119.074 219.216 119.088 219.06 119.101C218.399 119.135 217.838 118.941 217.678 118.532C217.518 118.123 217.691 117.775 218.399 117.775C218.738 117.761 219.077 117.734 219.414 117.692C219.305 116.384 219.227 115.368 219.213 115.049Z" fill="#4192D3"/>
<path d="M223.592 120.782C223.559 120.106 223.552 119.651 224.426 119.651C224.974 119.651 225.01 119.983 225.105 120.871C225.121 121.022 225.138 121.188 225.161 121.372C225.271 122.65 225.547 123.909 225.982 125.116C226.342 125.866 226.749 125.833 227.217 125.391C227.991 124.667 228.812 123.388 229.48 121.003C229.546 119.744 229.706 118.981 230.321 119.128C230.708 119.222 230.895 119.523 230.768 120.709C230.526 122.528 230.603 124.375 230.995 126.168C231.099 126.266 231.181 126.386 231.237 126.518C231.292 126.651 231.319 126.794 231.315 126.938C231.202 127.708 230.467 127.795 230.147 127.246C229.721 126.255 229.474 125.196 229.419 124.118C229.093 124.82 228.675 125.475 228.178 126.067C227.25 127.172 225.915 127.239 224.994 125.799C224.073 124.359 223.625 121.459 223.592 120.782Z" fill="#4192D3"/>
<path d="M234.287 126.985C233.571 124.505 233.171 121.943 233.098 119.362C233.094 119.295 233.103 119.228 233.126 119.164C233.149 119.101 233.185 119.043 233.231 118.995C233.278 118.946 233.334 118.908 233.396 118.882C233.458 118.857 233.525 118.845 233.592 118.847C233.668 118.831 233.746 118.832 233.822 118.848C233.897 118.865 233.968 118.896 234.031 118.942C234.094 118.987 234.146 119.045 234.186 119.111C234.225 119.178 234.25 119.252 234.26 119.329C234.373 119.798 234.567 120.936 234.701 121.801C235.228 120.374 235.942 118.86 237.791 118.753C238.666 118.699 239.126 118.954 239.126 120.093C239.126 121.231 238.726 122.209 237.831 122.035C237.557 121.981 237.564 121.747 237.644 121.519C237.724 121.291 238.078 119.985 237.424 119.858C236.77 119.731 235.789 121.111 235.381 123.314C235.261 124.375 235.303 125.448 235.508 126.496C235.628 127.44 235.548 127.554 235.088 127.527C234.905 127.542 234.724 127.492 234.574 127.387C234.424 127.282 234.316 127.128 234.267 126.951L234.287 126.985Z" fill="#4192D3"/>
<path fill-rule="evenodd" clip-rule="evenodd" d="M241.094 121.111C242.469 119.744 244.332 118.961 245.667 120.039L245.653 120.072C245.946 120.305 246.154 120.628 246.243 120.992C246.333 121.356 246.299 121.739 246.147 122.082C245.7 123.227 243.544 124.379 241.835 124.6C241.559 124.638 241.299 124.661 241.058 124.672C241.078 124.77 241.104 124.872 241.134 124.975C241.515 126.268 243.144 126.898 244.993 126.228C245.366 126.094 245.727 126.047 245.84 126.261C245.954 126.476 245.587 127.132 245.233 127.259C243.364 127.942 241.088 127.547 240.126 126C239.858 125.569 239.7 125.08 239.657 124.563C239.329 124.479 239.116 124.356 239.038 124.218C238.845 123.877 238.685 123.522 239.232 123.294C239.404 123.337 239.577 123.371 239.751 123.398C239.939 122.612 240.381 121.817 241.094 121.111ZM241.076 123.452C241.945 123.39 242.798 123.136 243.571 122.698C244.766 122.075 245.2 121.091 244.766 120.689C244.238 120.186 242.69 121.151 242.096 121.821C241.584 122.371 241.227 122.884 241.076 123.452Z" fill="#4192D3"/>
</g>
<defs>
<clipPath id="clip0_106_408">
<rect width="256" height="136" fill="white"/>
</clipPath>
</defs>
</svg>
